<svg width="602" height="444" viewBox="0 0 602 444" fill="none" xmlns="http://www.w3.org/2000/svg">
<g clip-path="url(#clip0_18_2)">
<path d="M133.553 122.261L21.3523 197.316L131.869 362.53L244.07 287.475L133.553 122.261Z" fill="#F5F5F5"/>
<path d="M186.09 279.66L184.81 287.54L129.03 279.5L130.31 271.62L186.09 279.66Z" fill="#E0E0E0"/>
<path d="M158 251.55L166 252.7L157.13 307.62L149.12 306.46L158 251.55Z" fill="#E0E0E0"/>
<path d="M106.67 181.75C106.75 181.86 95.51 189.53 81.56 198.85C67.61 208.17 56.24 215.65 56.16 215.53C56.08 215.41 67.32 207.75 81.27 198.42C95.22 189.09 106.54 181.63 106.67 181.75Z" fill="#E0E0E0"/>
<path d="M147.89 171.39C147.97 171.51 129.27 184.15 106.13 199.63C82.99 215.11 64.13 227.56 64.07 227.45C64.01 227.34 82.67 214.68 105.84 199.2C129.01 183.72 147.81 171.27 147.89 171.39Z" fill="#E0E0E0"/>
<path d="M156.16 183.75C156.24 183.87 137.54 196.52 114.4 212C91.26 227.48 72.4 239.93 72.34 239.81C72.28 239.69 90.96 227.05 114.11 211.56C137.26 196.07 156.08 183.63 156.16 183.75Z" fill="#E0E0E0"/>
<path d="M164.43 196.12C164.51 196.24 145.81 208.89 122.67 224.36C99.53 239.83 80.67 252.3 80.67 252.18C80.67 252.06 99.28 239.41 122.43 223.93C145.58 208.45 164.35 196 164.43 196.12Z" fill="#E0E0E0"/>
<path d="M172.67 208.49C172.75 208.61 154.05 221.25 130.91 236.73C107.77 252.21 88.91 264.66 88.86 264.54C88.81 264.42 107.5 251.78 130.67 236.3C153.84 220.82 172.67 208.37 172.67 208.49Z" fill="#E0E0E0"/>
<path d="M508.739 232.965L414.509 295.999L507.323 434.748L601.553 371.713L508.739 232.965Z" fill="#F5F5F5"/>
<path d="M552.87 365.18L551.8 371.8L504.95 365.05L506.02 358.43L552.87 365.18Z" fill="#E0E0E0"/>
<path d="M529.27 341.57L536 342.54L528.54 388.66L521.82 387.69L529.27 341.57Z" fill="#E0E0E0"/>
<path d="M486.13 283C486.21 283.12 476.78 289.57 465.06 297.4C453.34 305.23 443.78 311.49 443.7 311.4C443.62 311.31 453.06 304.84 464.77 297C476.48 289.16 486.05 282.83 486.13 283Z" fill="#E0E0E0"/>
<path d="M520.78 274.25C520.86 274.37 505.17 285.01 485.78 298C466.39 310.99 450.52 321.45 450.44 321.33C450.36 321.21 466.05 310.57 485.44 297.57C504.83 284.57 520.67 274.13 520.78 274.25Z" fill="#E0E0E0"/>
<path d="M527.73 284.63C527.81 284.75 512.12 295.39 492.73 308.39C473.34 321.39 457.47 331.83 457.39 331.71C457.31 331.59 472.95 321 492.39 308C511.83 295 527.67 284.52 527.73 284.63Z" fill="#E0E0E0"/>
<path d="M534.67 295C534.75 295.12 519.05 305.76 499.67 318.76C480.29 331.76 464.41 342.2 464.33 342.08C464.25 341.96 479.94 331.33 499.33 318.32C518.72 305.31 534.6 294.9 534.67 295Z" fill="#E0E0E0"/>
<path d="M541.67 305.41C541.75 305.53 526.06 316.16 506.67 329.16C487.28 342.16 471.41 352.6 471.33 352.49C471.25 352.38 486.94 341.73 506.33 328.73C525.72 315.73 541.54 305.29 541.67 305.41Z" fill="#E0E0E0"/>
<path d="M359.651 128.339L256.834 73.3477L175.86 224.744L278.678 279.735L359.651 128.339Z" fill="#F5F5F5"/>
<path d="M261.09 232.37L254.57 234.6L238.01 188.83L244.53 186.59L261.09 232.37Z" fill="#CECECE"/>
<path d="M271.09 199.53L273.47 206.1L228.01 221.67L225.63 215.1L271.09 199.53Z" fill="#CECECE"/>
<path d="M303.39 132C303.31 132.15 292.89 126.73 280.1 119.9C267.31 113.07 257.02 107.4 257.1 107.25C257.18 107.1 267.61 112.52 280.4 119.35C293.19 126.18 303.47 131.84 303.39 132Z" fill="#E0E0E0"/>
<path d="M328.07 159.23C327.99 159.38 310.73 150.3 289.52 138.96C268.31 127.62 251.19 118.3 251.27 118.15C251.35 118 268.6 127.07 289.81 138.42C311.02 149.77 328.15 159.08 328.07 159.23Z" fill="#E0E0E0"/>
<path d="M322.01 170.56C321.93 170.71 304.67 161.64 283.46 150.3C262.25 138.96 245.13 129.63 245.21 129.48C245.29 129.33 262.54 138.41 283.75 149.75C304.96 161.09 322.09 170.41 322.01 170.56Z" fill="#E0E0E0"/>
<path d="M315.95 181.89C315.87 182.04 298.61 172.97 277.4 161.63C256.19 150.29 239.07 141 239.15 140.82C239.23 140.64 256.48 149.74 277.69 161.08C298.9 172.42 316.03 181.74 315.95 181.89Z" fill="#E0E0E0"/>
<path d="M309.89 193.22C309.81 193.37 292.55 184.3 271.34 172.96C250.13 161.62 233 152.3 233.09 152.15C233.18 152 250.42 161.07 271.63 172.41C292.84 183.75 309.97 193.07 309.89 193.22Z" fill="#E0E0E0"/>
<path opacity="0.2" d="M310.42 0H307.84V43.98H310.42V0Z" fill="black"/>
<path d="M248.9 97.19H369.36C369.36 97.19 358.24 44 308.22 44C263.73 44 248.9 97.19 248.9 97.19Z" fill="#E44C0D"/>
<path d="M310.42 0H307.84V43.98H310.42V0Z" fill="#E44C0D"/>
<path d="M577.34 439.83C577.34 439.97 448.09 440.09 288.68 440.09C129.27 440.09 0 440 0 439.83C0 439.66 129.23 439.57 288.68 439.57C448.13 439.57 577.34 439.68 577.34 439.83Z" fill="#263238"/>
<path d="M31.96 377.2C33.6507 377.322 35.2995 377.783 36.808 378.556C38.3165 379.33 39.6537 380.399 40.74 381.7C42.8998 384.318 44.4292 387.397 45.21 390.7C46.9 397.02 45.86 404.49 44.06 410.78C37.22 408.33 32.99 401.03 31.06 397.19C28.06 391.13 26.27 378.33 31.93 377.19" fill="#E44C0D"/>
<path d="M53.91 418.45C52.8829 416.857 52.2956 415.021 52.2077 413.127C52.1199 411.234 52.5347 409.351 53.41 407.67C54.3127 406.005 55.5381 404.536 57.0147 403.349C58.4913 402.163 60.1894 401.283 62.01 400.76C63.68 400.24 65.62 400.03 67.07 401C67.7236 401.494 68.2327 402.155 68.544 402.913C68.8554 403.671 68.9576 404.499 68.84 405.31C68.5775 406.935 67.8872 408.46 66.84 409.73C63.51 414.24 59.47 417.99 53.84 418.45" fill="#E44C0D"/>
<path d="M54.67 439.58C54.5216 439.155 54.4177 438.716 54.36 438.27C54.18 437.33 53.94 436.12 53.65 434.67C52.7524 430.7 52.5025 426.61 52.91 422.56C53.3815 418.49 54.9316 414.62 57.4 411.35C58.1542 410.372 59.0238 409.489 59.99 408.72C60.2525 408.512 60.5263 408.318 60.81 408.14C60.9002 408.065 61.0014 408.004 61.11 407.96C59.8451 409.041 58.6895 410.243 57.66 411.55C55.3218 414.823 53.8494 418.635 53.38 422.63C52.74 427.29 53.53 431.56 53.99 434.63C54.23 436.16 54.43 437.4 54.54 438.26C54.6188 438.696 54.6622 439.137 54.67 439.58V439.58Z" fill="#263238"/>
<path d="M34.16 386.83C34.2742 386.988 34.3682 387.159 34.44 387.34C34.62 387.74 34.86 388.24 35.14 388.87C35.75 390.2 36.6 392.13 37.63 394.52C39.69 399.31 42.45 405.97 45.33 413.39C48.21 420.81 50.66 427.58 52.33 432.51C53.19 434.97 53.86 436.97 54.33 438.36C54.54 439.02 54.7 439.55 54.83 439.96C54.9014 440.144 54.9517 440.335 54.98 440.53C54.8786 440.36 54.798 440.179 54.74 439.99C54.59 439.59 54.4 439.07 54.15 438.42L52.04 432.62C50.25 427.73 47.75 420.97 44.88 413.56C42.01 406.15 39.29 399.47 37.31 394.65C36.31 392.28 35.54 390.35 34.97 388.94C34.71 388.3 34.5 387.79 34.34 387.38C34.2649 387.202 34.2047 387.018 34.16 386.83V386.83Z" fill="#263238"/>
<path d="M46.54 425.6C44.4823 422.174 41.6388 419.287 38.2446 417.178C34.8503 415.069 31.0028 413.798 27.02 413.47C25.02 413.33 22.56 413.67 21.66 415.47C20.76 417.27 21.96 419.47 23.34 420.93C26.2721 423.997 30.0465 426.128 34.1877 427.053C38.3288 427.979 42.6512 427.657 46.61 426.13" fill="#E44C0D"/>
<path d="M30.1 418.89C30.524 418.869 30.949 418.886 31.37 418.94C31.863 418.967 32.3539 419.023 32.84 419.11C33.41 419.22 34.08 419.28 34.78 419.48C35.5625 419.645 36.3339 419.859 37.09 420.12C37.966 420.401 38.8242 420.735 39.66 421.12C41.5824 421.981 43.4008 423.058 45.08 424.33C46.7398 425.632 48.2432 427.122 49.56 428.77C50.1286 429.487 50.653 430.239 51.13 431.02C51.5612 431.694 51.9551 432.392 52.31 433.11C52.6104 433.694 52.8775 434.295 53.11 434.91C53.3105 435.365 53.4809 435.833 53.62 436.31C53.7681 436.709 53.8786 437.121 53.95 437.54C53.84 437.54 53.36 435.82 52.01 433.26C51.6424 432.572 51.2385 431.905 50.8 431.26C50.3127 430.502 49.7853 429.771 49.22 429.07C46.6044 425.838 43.2688 423.262 39.48 421.55C38.61 421.17 37.78 420.81 36.97 420.55C36.2264 420.279 35.4686 420.049 34.7 419.86C31.9 419.09 30.09 419 30.1 418.89Z" fill="#263238"/>
<path d="M484.03 105.48C481.09 106.15 479.66 109.54 479.38 112.54C479.1 115.54 479.48 118.72 478.22 121.46C476.8 124.54 473.41 126.82 473.3 130.21C473.23 132.28 474.46 134.21 474.4 136.3C474.3 139.7 470.84 142.3 470.65 145.66C470.52 148.11 472.15 150.45 471.76 152.87C471.46 154.75 469.99 156.23 469.37 158.03C468.14 161.63 470.61 165.58 473.82 167.6C475.618 168.731 477.642 169.455 479.749 169.722C481.857 169.99 483.997 169.794 486.021 169.148C488.044 168.502 489.903 167.422 491.466 165.984C493.029 164.546 494.259 162.783 495.07 160.82C496.85 156.5 496.46 151.63 496.07 146.98C494.87 132.473 493.977 117.947 493.39 103.4" fill="#263238"/>
<path d="M475.49 156.66C476.095 156.284 476.567 155.728 476.84 155.07C477.128 154.287 477.244 153.452 477.18 152.62C477.07 151.517 476.825 150.433 476.45 149.39C475.972 148.08 475.794 146.678 475.93 145.29C476.18 143.73 477.3 142.45 478.31 141.19C478.854 140.573 479.308 139.883 479.66 139.14C480.012 138.388 480.07 137.532 479.82 136.74C479.3 135.11 477.7 133.91 476.97 132.02C476.627 131.084 476.571 130.068 476.81 129.1C477.037 128.193 477.373 127.317 477.81 126.49C478.654 125.002 479.325 123.421 479.81 121.78C480.51 118.61 480.18 115.58 480.66 113.09C480.926 111.096 481.811 109.235 483.19 107.77C483.58 107.375 484.025 107.039 484.51 106.77C484.677 106.683 484.855 106.619 485.04 106.58C484.413 106.925 483.838 107.356 483.33 107.86C482.053 109.34 481.248 111.169 481.02 113.11C480.845 114.436 480.751 115.772 480.74 117.11C480.737 118.685 480.583 120.255 480.28 121.8C479.803 123.479 479.132 125.097 478.28 126.62C477.53 128.19 476.84 130.03 477.5 131.75C478.16 133.47 479.75 134.66 480.36 136.5C480.635 137.409 480.568 138.388 480.17 139.25C479.78 140.068 479.275 140.826 478.67 141.5C477.67 142.76 476.58 143.96 476.34 145.36C476.2 146.688 476.357 148.03 476.8 149.29C477.157 150.365 477.379 151.48 477.46 152.61C477.509 153.48 477.355 154.35 477.01 155.15C476.795 155.652 476.45 156.087 476.01 156.41C475.853 156.525 475.677 156.609 475.49 156.66V156.66Z" fill="#455A64"/>
<path d="M467.67 180.37L458.67 206.37L421.03 208.37L414.75 222.37L454.05 226.37C455.907 227.132 457.899 227.51 459.906 227.481C461.913 227.452 463.893 227.016 465.727 226.2C467.56 225.384 469.21 224.205 470.575 222.734C471.94 221.262 472.993 219.53 473.67 217.64L484.16 188.36L467.67 180.37Z" fill="#E5A992"/>
<path d="M545.48 425.7C545.48 425.7 517.9 338.08 517.31 335.24C516.78 332.66 527.31 269.61 528.65 253.24L491.38 254.63V255L475.54 255.88L489.72 435H506.87L505.17 375.55C515.75 403.94 530.91 432.88 530.91 432.88L545.48 425.7Z" fill="#E5A992"/>
<path d="M505.87 396.88C505.87 396.34 505.66 376.96 505.66 376.96C505.45 378.12 499.09 360.14 499.24 359.05C499.32 358.48 505.87 396.88 505.87 396.88Z" fill="#A36957"/>
<path d="M498.52 350.53C498.432 350.886 498.395 351.253 498.41 351.62C498.355 352.619 498.355 353.621 498.41 354.62C498.41 355.25 498.5 355.93 498.58 356.67C498.66 357.41 498.77 358.19 498.94 359C499.296 360.769 499.767 362.513 500.35 364.22C501.59 367.85 502.97 371.02 503.94 373.32C504.4 374.32 504.8 375.27 505.14 376.03C505.263 376.384 505.431 376.72 505.64 377.03C505.587 376.684 505.486 376.348 505.34 376.03C505.11 375.37 504.76 374.42 504.34 373.25C503.46 370.91 502.14 367.71 500.91 364.12C500.328 362.438 499.851 360.721 499.48 358.98C499.3 358.18 499.18 357.41 499.07 356.69C498.96 355.97 498.88 355.29 498.83 354.69C498.71 353.45 498.66 352.45 498.63 351.75C498.649 351.34 498.612 350.93 498.52 350.53V350.53Z" fill="#A36957"/>
<path d="M489.4 435.91V434.3L506.97 433.53L507.02 440.18L505.94 440.25C501.11 440.53 481.39 441.35 478.17 440.38C474.56 439.3 489.4 435.91 489.4 435.91Z" fill="#455A64"/>
<path d="M507.25 439.78C507.15 439.787 507.05 439.787 506.95 439.78L506.09 439.84L502.91 439.98C500.23 440.09 496.52 440.19 492.43 440.21C488.34 440.23 484.62 440.16 481.93 440.08L478.76 439.95H477.89H477.59C477.69 439.942 477.79 439.942 477.89 439.95H478.76L481.94 440.01C484.62 440.01 488.33 440.09 492.42 440.07C496.51 440.05 500.23 439.98 502.91 439.91L506.09 439.83H507.25V439.78Z" fill="#263238"/>
<path d="M483.67 440.34C483.524 439.817 483.323 439.311 483.07 438.83C482.754 438.387 482.388 437.981 481.98 437.62C482.526 437.815 482.979 438.208 483.25 438.72C483.581 439.192 483.73 439.767 483.67 440.34V440.34Z" fill="#263238"/>
<path d="M488.85 437.71C488.85 437.71 488.56 437.44 488.3 437.04C488.04 436.64 487.88 436.29 487.93 436.26C487.98 436.23 488.22 436.52 488.48 436.92C488.74 437.32 488.9 437.68 488.85 437.71Z" fill="#263238"/>
<path d="M490.27 437C490.27 437.05 489.95 436.86 489.65 436.59C489.35 436.32 489.13 436.07 489.17 436.03C489.21 435.99 489.49 436.17 489.79 436.44C490.09 436.71 490.31 436.91 490.27 437Z" fill="#263238"/>
<path d="M491.16 435.3C490.866 435.408 490.552 435.449 490.24 435.42C489.934 435.461 489.622 435.43 489.33 435.33C489.621 435.223 489.932 435.182 490.24 435.21C490.549 435.168 490.865 435.199 491.16 435.3V435.3Z" fill="#263238"/>
<path d="M491.46 434.14C491.162 434.333 490.815 434.437 490.46 434.44C490.12 434.485 489.774 434.436 489.46 434.3C489.79 434.244 490.125 434.217 490.46 434.22C490.79 434.161 491.125 434.134 491.46 434.14Z" fill="#263238"/>
<path d="M488.26 436.18C487.887 436.25 487.504 436.25 487.13 436.18C486.726 436.131 486.328 436.044 485.94 435.92C485.7 435.854 485.469 435.76 485.25 435.64C485.117 435.562 485.017 435.437 484.97 435.29C484.952 435.207 484.958 435.12 484.988 435.04C485.018 434.96 485.071 434.89 485.14 434.84C485.417 434.706 485.72 434.635 486.028 434.632C486.336 434.629 486.64 434.695 486.92 434.824C487.199 434.953 487.446 435.143 487.643 435.379C487.84 435.615 487.983 435.892 488.06 436.19C488.08 436.289 488.08 436.391 488.06 436.49C487.947 436.129 487.771 435.79 487.54 435.49C487.274 435.191 486.927 434.975 486.54 434.87C486.097 434.727 485.617 434.763 485.2 434.97C485.03 435.1 485.1 435.31 485.29 435.43C485.494 435.54 485.709 435.631 485.93 435.7C486.306 435.824 486.69 435.921 487.08 435.99C487.83 436.15 488.26 436.15 488.26 436.18Z" fill="#263238"/>
<path d="M487.97 436.24C487.824 436.008 487.774 435.728 487.83 435.46C487.867 435.166 487.973 434.885 488.14 434.64C488.234 434.473 488.368 434.332 488.531 434.231C488.693 434.13 488.879 434.071 489.07 434.06C489.183 434.086 489.282 434.155 489.347 434.251C489.412 434.348 489.438 434.465 489.42 434.58C489.396 434.759 489.331 434.93 489.23 435.08C489.078 435.328 488.901 435.559 488.7 435.77C488.526 435.969 488.307 436.124 488.06 436.22C488.06 436.22 488.28 436.02 488.59 435.66C488.77 435.454 488.927 435.229 489.06 434.99C489.21 434.75 489.32 434.32 489.06 434.27C488.8 434.22 488.5 434.53 488.33 434.75C488.171 434.967 488.062 435.216 488.01 435.48C487.969 435.731 487.956 435.986 487.97 436.24V436.24Z" fill="#263238"/>
<path d="M506.88 435C506.88 435 506.38 435 505.59 435.05C504.561 435.173 503.588 435.582 502.78 436.231C501.972 436.88 501.362 437.742 501.02 438.72C500.76 439.47 500.74 439.98 500.7 439.97C500.66 439.96 500.7 439.84 500.7 439.62C500.726 439.298 500.786 438.979 500.88 438.67C501.198 437.646 501.81 436.739 502.64 436.06C503.48 435.394 504.501 434.993 505.57 434.91C505.902 434.87 506.238 434.87 506.57 434.91C506.677 434.927 506.781 434.957 506.88 435V435Z" fill="#263238"/>
<path d="M498.47 438.38C497.631 438.575 496.771 438.659 495.91 438.63C495.054 438.673 494.196 438.599 493.36 438.41C493.36 438.35 494.5 438.41 495.91 438.41C497.32 438.41 498.46 438.32 498.47 438.38Z" fill="#263238"/>
<path d="M501.89 438.35C501.89 438.35 501.8 438.59 501.68 438.85C501.56 439.11 501.5 439.35 501.44 439.34C501.38 439.33 501.35 439.07 501.49 438.76C501.63 438.45 501.85 438.3 501.89 438.35Z" fill="#263238"/>
<path d="M503.18 436.74C503.18 436.74 503.11 436.96 502.93 437.14C502.75 437.32 502.57 437.44 502.52 437.4C502.47 437.36 502.59 437.18 502.77 436.99C502.95 436.8 503.13 436.69 503.18 436.74Z" fill="#263238"/>
<path d="M505.02 436C505.02 436.06 504.78 436.06 504.52 436.15C504.26 436.24 504.08 436.38 504.03 436.34C503.98 436.3 504.13 436.06 504.45 435.95C504.77 435.84 505.04 435.94 505.02 436Z" fill="#263238"/>
<path d="M506.33 435.64C506.33 435.7 506.26 435.79 506.11 435.84C505.96 435.89 505.83 435.9 505.81 435.84C505.79 435.78 505.89 435.69 506.03 435.64C506.17 435.59 506.31 435.59 506.33 435.64Z" fill="#263238"/>
<path d="M530.56 434.36L529.9 432.89L545.61 425L548.38 431L547.38 431.51C543.09 433.74 525.44 442.56 522.1 443C518.41 443.53 530.56 434.36 530.56 434.36Z" fill="#455A64"/>
<path d="M548.44 430.57L548.18 430.73L547.41 431.13L544.57 432.57C542.17 433.76 538.83 435.37 535.1 437.07C531.37 438.77 527.95 440.22 525.47 441.25L522.52 442.44L521.72 442.75C521.628 442.793 521.53 442.823 521.43 442.84L521.7 442.71L522.49 442.36L525.41 441.11C527.88 440.05 531.28 438.57 535.01 436.87C538.74 435.17 542.09 433.59 544.51 432.43L547.37 431.06L548.16 430.69L548.44 430.57Z" fill="#263238"/>
<path d="M527.19 440.74C526.843 440.318 526.451 439.935 526.02 439.6C525.551 439.322 525.051 439.101 524.53 438.94C525.104 438.932 525.667 439.101 526.143 439.422C526.618 439.744 526.984 440.204 527.19 440.74V440.74Z" fill="#263238"/>
<path d="M530.8 436.22C530.8 436.22 530.42 436.1 530.02 435.84C529.62 435.58 529.33 435.33 529.36 435.28C529.39 435.23 529.74 435.4 530.14 435.66C530.54 435.92 530.83 436.17 530.8 436.22Z" fill="#263238"/>
<path d="M531.78 435C531.78 435.05 531.44 435 531.05 434.88C530.66 434.76 530.37 434.61 530.38 434.55C530.633 434.526 530.888 434.568 531.12 434.67C531.5 434.76 531.8 434.9 531.78 435Z" fill="#263238"/>
<path d="M531.92 433.08C531.92 433.14 531.59 433.35 531.13 433.57C530.865 433.729 530.568 433.828 530.26 433.86C530.26 433.8 530.59 433.59 531.04 433.37C531.309 433.211 531.609 433.113 531.92 433.08V433.08Z" fill="#263238"/>
<path d="M531.72 431.9C531.72 431.9 531.43 432.3 530.91 432.59C530.615 432.79 530.266 432.895 529.91 432.89C530.197 432.697 530.501 432.533 530.82 432.4C531.31 432.13 531.67 431.85 531.72 431.9Z" fill="#263238"/>
<path d="M529.67 435.08C529.365 435.289 529.027 435.445 528.67 435.54C528.277 435.655 527.876 435.738 527.47 435.79C527.224 435.821 526.976 435.821 526.73 435.79C526.576 435.778 526.432 435.707 526.33 435.59C526.283 435.519 526.259 435.435 526.259 435.35C526.259 435.265 526.283 435.181 526.33 435.11C526.634 434.742 527.057 434.49 527.525 434.399C527.994 434.308 528.48 434.383 528.9 434.61C529.148 434.74 529.366 434.921 529.54 435.14C529.66 435.3 529.71 435.4 529.7 435.41C529.454 435.135 529.159 434.908 528.83 434.74C528.478 434.575 528.085 434.516 527.7 434.57C527.471 434.594 527.249 434.663 527.046 434.772C526.844 434.882 526.665 435.031 526.52 435.21C526.41 435.4 526.52 435.56 526.79 435.59C527.02 435.61 527.25 435.61 527.48 435.59C527.878 435.55 528.273 435.48 528.66 435.38C529.23 435.22 529.67 435.05 529.67 435.08Z" fill="#263238"/>
<path d="M529.39 435.25C529.167 435.092 529.01 434.857 528.95 434.59C528.862 434.309 528.841 434.011 528.89 433.72C528.907 433.528 528.973 433.344 529.082 433.184C529.19 433.025 529.338 432.896 529.51 432.81C529.76 432.73 530.34 433.24 530.38 433.43C530.42 433.62 530.09 433.52 530.07 433.68C530.038 433.964 529.97 434.243 529.87 434.51C529.797 434.767 529.659 435.001 529.47 435.19C529.47 435.19 529.59 434.92 529.73 434.47C529.802 434.204 529.852 433.934 529.88 433.66C529.88 433.38 529.88 432.95 529.56 433.02C529.24 433.09 529.15 433.48 529.08 433.76C529.019 434.02 529.019 434.29 529.08 434.55C529.163 434.792 529.266 435.026 529.39 435.25V435.25Z" fill="#263238"/>
<path d="M546.14 426.36C546.14 426.36 545.66 426.53 544.98 426.94C544.091 427.472 543.367 428.24 542.89 429.16C542.427 430.088 542.23 431.126 542.32 432.16C542.38 432.96 542.57 433.42 542.53 433.44C542.465 433.341 542.415 433.233 542.38 433.12C542.281 432.814 542.211 432.499 542.17 432.18C542.027 431.115 542.211 430.032 542.699 429.074C543.187 428.117 543.954 427.33 544.9 426.82C545.183 426.663 545.481 426.536 545.79 426.44C545.902 426.396 546.02 426.369 546.14 426.36V426.36Z" fill="#263238"/>
<path d="M539.85 432.9C538.44 433.881 536.865 434.599 535.2 435.02C535.2 434.96 536.25 434.56 537.53 434.02C538.81 433.48 539.82 432.85 539.85 432.9Z" fill="#263238"/>
<path d="M542.96 431.47C543.01 431.47 542.96 431.72 542.96 432.01C542.96 432.3 542.96 432.54 542.96 432.56C542.96 432.58 542.76 432.34 542.76 432.01C542.76 431.68 542.91 431.44 542.96 431.47Z" fill="#263238"/>
<path d="M543.47 429.47C543.52 429.47 543.47 429.7 543.41 429.94C543.35 430.18 543.2 430.36 543.15 430.34C543.1 430.32 543.15 430.11 543.21 429.87C543.27 429.63 543.41 429.45 543.47 429.47Z" fill="#263238"/>
<path d="M544.85 428C544.85 428.06 544.65 428.15 544.45 428.34C544.25 428.53 544.14 428.73 544.09 428.71C544.04 428.69 544.09 428.41 544.31 428.18C544.53 427.95 544.84 428 544.85 428Z" fill="#263238"/>
<path d="M545.9 427.18C545.9 427.18 545.9 427.34 545.78 427.45C545.66 427.56 545.55 427.62 545.51 427.58C545.47 427.54 545.51 427.42 545.63 427.31C545.75 427.2 545.86 427.14 545.9 427.18Z" fill="#263238"/>
<path d="M526.23 223.64L523.31 187.94L538.31 188.21C538.31 188.21 539 182.94 536.79 171.4C535.43 164.32 530.72 159.98 525.43 157.4V157.3L524.97 157.18C520.615 155.225 515.965 154.012 511.21 153.59L492.76 153.8C492.76 153.8 478.67 152 470.9 162.09C467.9 165.96 458.59 192.45 458.59 192.45L480.74 203.11L478.67 188.42C478.67 188.42 479.09 199.07 480.45 202.42C481.2 204.3 483.45 210.14 483.45 210.14L483.16 227.76L526.23 223.64Z" fill="#E44C0D"/>
<path d="M516.05 182.76L513.32 194.42H539.15L537.45 174.86L516.05 182.76Z" fill="#E44C0D"/>
<path d="M539.15 194.42C538.021 194.212 536.877 194.098 535.73 194.08C533.61 193.96 530.73 193.85 527.45 193.87C524.17 193.89 521.28 194.03 519.16 194.19C518.013 194.23 516.872 194.37 515.75 194.61C516.895 194.701 518.045 194.701 519.19 194.61C521.3 194.54 524.19 194.46 527.45 194.45C530.71 194.44 533.6 194.45 535.72 194.5C536.864 194.564 538.011 194.537 539.15 194.42V194.42Z" fill="#263238"/>
<path d="M514.94 174.77C514.817 175.765 514.79 176.77 514.86 177.77C514.86 179.6 514.94 182.12 515.05 184.91C515.16 187.7 515.29 190.23 515.41 192.05C515.415 193.058 515.522 194.063 515.73 195.05C515.853 194.055 515.88 193.05 515.81 192.05C515.81 190.22 515.73 187.69 515.62 184.9C515.51 182.11 515.38 179.59 515.26 177.76C515.256 176.755 515.149 175.753 514.94 174.77Z" fill="#263238"/>
<g opacity="0.3">
<path opacity="0.3" d="M491.44 184.87C491.44 184.87 497.18 227.44 513.32 226.31C513.32 226.31 520.59 226.23 522.92 221.4V219.5L491.44 184.87Z" fill="black"/>
</g>
<g opacity="0.3">
<path opacity="0.3" d="M514.94 177.28L511.85 198.15L513.85 201.81L517.14 194.65L515.75 194.61L514.94 177.28Z" fill="black"/>
</g>
<path d="M483.36 210.16C483.168 209.848 483.02 209.512 482.92 209.16C482.67 208.51 482.34 207.56 481.92 206.37C480.919 203.269 480.094 200.114 479.45 196.92C478.808 193.724 478.4 190.485 478.23 187.23C478.17 185.98 478.15 184.97 478.17 184.23C478.144 183.868 478.168 183.505 478.24 183.15C478.32 183.15 478.38 184.69 478.59 187.15C478.871 190.376 479.329 193.584 479.96 196.76C480.7 200.48 481.59 203.81 482.27 206.2C482.59 207.31 482.86 208.26 483.08 209.04C483.217 209.401 483.311 209.777 483.36 210.16V210.16Z" fill="#263238"/>
<path d="M489.88 222.39C489.74 222.39 489.34 221.52 488.99 220.39C488.689 219.697 488.555 218.944 488.6 218.19C489.041 218.801 489.345 219.5 489.49 220.24C489.777 220.919 489.91 221.653 489.88 222.39V222.39Z" fill="#263238"/>
<path d="M492.11 222.23C491.354 220.224 491.322 218.017 492.02 215.99C492.098 217.029 492.098 218.071 492.02 219.11C492.129 220.146 492.159 221.189 492.11 222.23V222.23Z" fill="#263238"/>
<path d="M481.19 203.6C481.12 203.72 475.97 201.28 469.68 198.14C463.39 195 458.34 192.34 458.4 192.21C458.46 192.08 463.62 194.53 469.91 197.67C476.2 200.81 481.25 203.47 481.19 203.6Z" fill="#263238"/>
<path d="M490.27 157.25C490.38 152.19 490.41 146.87 490.41 146.87C490.41 146.87 483.92 145.62 482.79 137.08C481.71 128.94 484.73 109.83 484.73 109.83C494.21 106.25 504.06 109.5 510.55 117.18L508.94 158.25C508.75 163.02 504.5 166.66 499.4 166.42C494.24 166.17 490.16 162.07 490.27 157.25Z" fill="#E5A992"/>
<path d="M484.23 125.1C484.221 125.38 484.32 125.653 484.506 125.863C484.692 126.073 484.951 126.205 485.23 126.23C485.372 126.244 485.515 126.228 485.651 126.185C485.787 126.141 485.912 126.071 486.02 125.977C486.128 125.884 486.215 125.769 486.277 125.641C486.339 125.512 486.374 125.372 486.38 125.23C486.389 124.951 486.29 124.679 486.104 124.47C485.918 124.262 485.659 124.133 485.38 124.11C485.238 124.088 485.092 124.098 484.954 124.138C484.815 124.177 484.687 124.247 484.578 124.341C484.468 124.435 484.381 124.551 484.321 124.682C484.261 124.813 484.23 124.956 484.23 125.1V125.1Z" fill="#263238"/>
<path d="M483.83 123.67C483.96 123.81 484.83 123.22 485.98 123.26C487.13 123.3 487.98 123.9 488.12 123.76C488.26 123.62 488.06 123.44 487.69 123.15C487.189 122.787 486.588 122.588 485.97 122.58C485.361 122.557 484.761 122.732 484.26 123.08C483.89 123.35 483.76 123.6 483.83 123.67Z" fill="#263238"/>
<path d="M496.14 125.84C496.129 126.121 496.227 126.395 496.413 126.606C496.599 126.817 496.86 126.947 497.14 126.97C497.283 126.992 497.43 126.982 497.569 126.942C497.708 126.901 497.837 126.831 497.946 126.736C498.056 126.641 498.143 126.523 498.202 126.391C498.262 126.258 498.292 126.115 498.29 125.97C498.301 125.69 498.203 125.417 498.016 125.208C497.83 124.999 497.569 124.87 497.29 124.85C497.148 124.828 497.002 124.838 496.864 124.878C496.725 124.917 496.597 124.987 496.488 125.081C496.378 125.175 496.291 125.291 496.231 125.422C496.171 125.553 496.14 125.696 496.14 125.84V125.84Z" fill="#263238"/>
<path d="M496.06 124.41C496.19 124.56 497.06 123.97 498.21 124C499.36 124.03 500.21 124.64 500.36 124.5C500.51 124.36 500.29 124.18 499.92 123.9C499.427 123.528 498.828 123.324 498.21 123.32C497.598 123.302 496.997 123.477 496.49 123.82C496.13 124.09 496 124.34 496.06 124.41Z" fill="#263238"/>
<path d="M491.58 133C490.966 132.789 490.327 132.658 489.68 132.61C489.38 132.61 489.1 132.5 489.06 132.3C489.036 131.987 489.113 131.675 489.28 131.41L490.22 129.16C491.095 127.248 491.814 125.268 492.37 123.24C491.346 125.077 490.47 126.993 489.75 128.97C489.44 129.76 489.13 130.52 488.84 131.24C488.646 131.597 488.582 132.011 488.66 132.41C488.699 132.518 488.763 132.616 488.846 132.696C488.929 132.776 489.03 132.835 489.14 132.87C489.306 132.918 489.477 132.945 489.65 132.95C490.289 133.048 490.937 133.065 491.58 133V133Z" fill="#263238"/>
<path d="M490.41 146.87C494.411 147.03 498.378 146.078 501.87 144.12C501.87 144.12 498.96 149.89 490.47 148.88L490.41 146.87Z" fill="#A36957"/>
<path d="M499.82 121C499.58 121.37 498.68 121.21 497.68 121C496.68 120.79 495.8 120.62 495.68 120.19C495.56 119.76 496.61 119.19 497.95 119.46C499.29 119.73 500.06 120.68 499.82 121Z" fill="#263238"/>
<path d="M488.15 119.3C488.06 119.73 487.1 119.89 486 119.94C484.9 119.99 483.93 119.94 483.8 119.5C483.67 119.06 484.6 118.44 485.93 118.38C487.26 118.32 488.24 118.89 488.15 119.3Z" fill="#263238"/>
<path d="M491.6 135.81C491.474 135.78 491.341 135.793 491.223 135.848C491.105 135.902 491.009 135.994 490.95 136.11C490.893 136.212 490.864 136.327 490.865 136.444C490.866 136.561 490.898 136.675 490.957 136.776C491.016 136.876 491.101 136.96 491.202 137.018C491.303 137.076 491.418 137.107 491.535 137.107C491.652 137.107 491.767 137.076 491.868 137.018C491.969 136.96 492.054 136.876 492.113 136.776C492.172 136.675 492.204 136.561 492.205 136.444C492.206 136.327 492.177 136.212 492.12 136.11C492.048 135.976 491.933 135.87 491.793 135.81C491.653 135.75 491.497 135.739 491.35 135.78" fill="#A36957"/>
<path d="M491.87 135.93C491.87 135.88 491.68 135.59 491.17 135.7C491.018 135.74 490.878 135.819 490.766 135.929C490.654 136.04 490.572 136.178 490.53 136.33C490.476 136.521 490.481 136.725 490.543 136.913C490.606 137.102 490.723 137.268 490.88 137.39C491.046 137.504 491.243 137.565 491.445 137.565C491.647 137.565 491.844 137.504 492.01 137.39C492.143 137.3 492.248 137.175 492.311 137.028C492.375 136.881 492.395 136.718 492.37 136.56C492.27 136.03 491.88 135.95 491.86 136.02C491.84 136.09 492 136.27 491.97 136.58C491.963 136.657 491.938 136.73 491.896 136.795C491.854 136.859 491.797 136.913 491.73 136.95C491.652 136.995 491.565 137.018 491.475 137.018C491.385 137.018 491.298 136.995 491.22 136.95C491.15 136.891 491.097 136.815 491.066 136.729C491.034 136.643 491.025 136.55 491.04 136.46C491.051 136.381 491.082 136.306 491.129 136.242C491.176 136.177 491.238 136.125 491.31 136.09C491.59 135.92 491.84 136 491.87 135.93Z" fill="#263238"/>
<path d="M506.67 127.21C505.67 129.55 503.19 131.36 503.53 133.89C503.75 135.52 504.8 137.04 504.6 138.68C504.34 140.68 502.21 142.16 501.9 144.21C501.53 146.72 503.98 148.67 504.95 151.01C506.38 154.43 504.56 158.27 504.51 162.01C504.569 164.849 505.655 167.571 507.567 169.671C509.48 171.771 512.088 173.106 514.91 173.43C517.19 173.62 519.76 172.93 520.91 170.97C521.91 169.35 521.69 167.29 522.27 165.5C523.15 162.82 525.7 160.86 526.27 158.1C527.27 153.1 521.17 148.9 521.57 143.78C521.74 141.59 523.09 139.69 523.66 137.57C524.023 136.177 524.051 134.717 523.741 133.311C523.432 131.905 522.794 130.592 521.88 129.48C520.37 127.69 518.19 126.48 516.88 124.56C515.43 122.35 515.38 119.56 514.88 116.95C514.209 113.778 512.744 110.827 510.623 108.375C508.501 105.922 505.793 104.047 502.75 102.926C499.708 101.804 496.431 101.472 493.225 101.961C490.019 102.449 486.99 103.743 484.42 105.72C484.42 105.72 482.97 112.31 489.74 113.42C496.51 114.53 499.64 113.25 500.4 115.96C500.221 117.076 500.309 118.219 500.656 119.295C501.004 120.371 501.602 121.349 502.4 122.15C505.16 125.13 507.79 124.49 506.67 127.21Z" fill="#263238"/>
<path d="M517.42 172.92C517.212 172.927 517.003 172.907 516.8 172.86C516.214 172.756 515.638 172.599 515.08 172.39C513.015 171.598 511.204 170.261 509.84 168.52C508.884 167.319 508.133 165.967 507.62 164.52C507.036 162.872 506.728 161.138 506.71 159.39C506.689 157.463 506.931 155.542 507.43 153.68C507.703 152.697 508.037 151.731 508.43 150.79C508.843 149.853 509.207 148.895 509.52 147.92C509.795 146.959 509.795 145.941 509.52 144.98C509.227 144.034 508.849 143.117 508.39 142.24C507.926 141.37 507.535 140.464 507.22 139.53C506.912 138.606 506.84 137.619 507.01 136.66C507.41 134.78 508.55 133.38 509.23 131.95C509.878 130.626 510.187 129.162 510.13 127.69C510.039 125.535 509.257 123.466 507.9 121.79C507.374 121.203 506.81 120.651 506.21 120.14C506.911 120.534 507.537 121.048 508.06 121.66C509.516 123.334 510.375 125.445 510.5 127.66C510.583 129.197 510.28 130.73 509.62 132.12C508.93 133.6 507.82 135.01 507.48 136.73C507.14 138.45 507.95 140.26 508.84 142C509.325 142.902 509.721 143.85 510.02 144.83C510.315 145.876 510.315 146.984 510.02 148.03C509.687 149.039 509.303 150.03 508.87 151C508.477 151.921 508.143 152.866 507.87 153.83C507.374 155.645 507.128 157.519 507.14 159.4C507.109 162.604 508.143 165.727 510.08 168.28C511.375 169.999 513.099 171.347 515.08 172.19C516.57 172.77 517.43 172.86 517.42 172.92Z" fill="#455A64"/>
<path d="M516.42 122.46C515.933 122.586 515.433 122.66 514.93 122.68C513.558 122.827 512.172 122.79 510.81 122.57C509.777 122.417 508.786 122.06 507.893 121.519C507 120.978 506.224 120.264 505.61 119.42C505.038 118.352 504.582 117.225 504.25 116.06C503.823 114.896 503.021 113.907 501.97 113.25C499.78 111.86 497.21 111.69 494.97 111.42C492.904 111.317 490.898 110.691 489.14 109.6C487.963 108.82 487.112 107.635 486.75 106.27C486.663 105.9 486.639 105.518 486.68 105.14C486.68 104.88 486.74 104.75 486.76 104.75C486.772 105.245 486.835 105.738 486.95 106.22C487.364 107.496 488.213 108.587 489.35 109.3C491.075 110.307 493.024 110.87 495.02 110.94C497.26 111.2 499.92 111.33 502.26 112.81C503.405 113.529 504.278 114.609 504.74 115.88C505.053 117.016 505.486 118.115 506.03 119.16C507.195 120.758 508.94 121.835 510.89 122.16C512.208 122.405 513.551 122.496 514.89 122.43C515.4 122.401 515.911 122.411 516.42 122.46V122.46Z" fill="#455A64"/>
<path d="M513.94 114.32C513.563 114.446 513.167 114.504 512.77 114.49C510.906 114.503 509.111 113.785 507.77 112.49C507.158 111.877 506.636 111.18 506.22 110.42C505.32 108.9 504.45 107.03 502.58 106.25C500.778 105.646 498.859 105.478 496.98 105.76C495.394 105.983 493.786 105.983 492.2 105.76C491.097 105.607 490.058 105.15 489.2 104.44C488.978 104.247 488.783 104.025 488.62 103.78C488.5 103.607 488.45 103.517 488.47 103.51C488.47 103.51 488.75 103.83 489.33 104.28C490.185 104.888 491.178 105.273 492.22 105.4C493.777 105.576 495.35 105.549 496.9 105.32C498.861 105 500.871 105.172 502.75 105.82C503.716 106.254 504.543 106.946 505.14 107.82C505.667 108.6 506.151 109.407 506.59 110.24C506.984 110.967 507.472 111.639 508.04 112.24C508.542 112.748 509.119 113.176 509.75 113.51C510.68 113.996 511.703 114.279 512.75 114.34C513.52 114.33 513.93 114.27 513.94 114.32Z" fill="#455A64"/>
<path d="M520.4 170.76C520.35 170.76 520.67 170.1 521.04 168.86C521.541 167.119 521.764 165.31 521.7 163.5C521.627 160.82 520.896 158.2 519.57 155.87C518.84 154.56 517.73 153.39 516.82 151.95C516.339 151.216 515.999 150.399 515.82 149.54C515.662 148.636 515.738 147.707 516.04 146.84C516.6 145.11 517.6 143.66 517.82 142.07C518.04 140.48 517.28 139.07 516.52 137.74C516.128 137.093 515.771 136.425 515.45 135.74C515.157 135.075 514.965 134.371 514.88 133.65C514.786 132.379 514.826 131.102 515 129.84C515.32 128.056 515.154 126.218 514.52 124.52C514.237 123.925 513.835 123.394 513.34 122.96C513.34 122.96 513.39 122.96 513.46 123.02C513.578 123.079 513.686 123.156 513.78 123.25C514.171 123.576 514.488 123.982 514.71 124.44C515.433 126.153 515.659 128.035 515.36 129.87C515.222 131.109 515.205 132.358 515.31 133.6C515.557 134.997 516.11 136.322 516.93 137.48C517.357 138.156 517.721 138.869 518.02 139.61C518.335 140.41 518.438 141.278 518.32 142.13C518.08 143.88 517.05 145.36 516.53 146.99C516.257 147.776 516.185 148.619 516.32 149.44C516.495 150.234 516.813 150.99 517.26 151.67C518.11 153.06 519.26 154.25 519.99 155.62C521.33 158.028 522.045 160.734 522.07 163.49C522.102 165.335 521.818 167.171 521.23 168.92C521.07 169.393 520.876 169.854 520.65 170.3C520.589 170.464 520.505 170.619 520.4 170.76V170.76Z" fill="#455A64"/>
<path d="M479.67 357.09C479.67 357.09 472.93 293.25 472.54 269.66C472.15 246.07 483.15 222.79 483.15 222.79L526.23 221C526.23 221 534.75 244.93 534.9 255C535.2 274.54 529.71 293.83 530.34 309.33L531.78 357.13" fill="#263238"/>
<path d="M533.23 278.6C533.005 278.795 532.768 278.976 532.52 279.14L532.13 279.41L531.71 279.82C531.34 280.14 531.005 280.499 530.71 280.89C529.32 282.59 528.31 285.64 527.34 289.43C526.844 291.532 526.113 293.572 525.16 295.51C524.87 296.041 524.536 296.546 524.16 297.02C523.98 297.26 523.81 297.52 523.6 297.75L522.94 298.41C521.995 299.293 520.897 299.998 519.7 300.49C517.29 301.55 514.56 302.05 512.08 303.3C509.539 304.667 507.576 306.904 506.55 309.6C505.33 312.31 504.55 315.15 503.55 317.81C502.55 320.47 501.2 323.01 499.05 324.63C496.994 326.059 494.553 326.829 492.05 326.84C489.73 326.98 487.58 326.91 485.65 327.2C483.913 327.38 482.253 328.007 480.83 329.02C479.791 329.832 479.013 330.931 478.59 332.18C478.322 332.968 478.263 333.813 478.42 334.63C478.54 335.19 478.69 335.46 478.66 335.47C478.499 335.219 478.384 334.941 478.32 334.65C478.109 333.816 478.137 332.939 478.4 332.12C478.797 330.809 479.582 329.648 480.65 328.79C482.109 327.69 483.835 326.999 485.65 326.79C487.65 326.47 489.78 326.51 492.07 326.36C494.5 326.344 496.868 325.591 498.86 324.2C500.881 322.434 502.373 320.143 503.17 317.58C504.17 314.95 504.9 312.1 506.17 309.34C507.246 306.533 509.298 304.207 511.95 302.79C514.53 301.51 517.26 301.02 519.61 300C520.761 299.524 521.817 298.847 522.73 298L523.36 297.37C523.56 297.15 523.73 296.9 523.91 296.67C524.263 296.215 524.574 295.73 524.84 295.22C525.798 293.309 526.539 291.296 527.05 289.22C528.05 285.44 529.14 282.35 530.61 280.64C530.903 280.25 531.238 279.895 531.61 279.58C531.77 279.44 531.91 279.3 532.05 279.19L532.46 278.93C532.71 278.805 532.967 278.694 533.23 278.6V278.6Z" fill="#FAFAFA"/>
<path d="M533.49 249.06C533.536 249.341 533.556 249.625 533.55 249.91C533.547 250.736 533.446 251.558 533.25 252.36C532.389 255.285 530.697 257.898 528.38 259.88C526.851 261.286 525.174 262.523 523.38 263.57C521.45 264.71 519.32 265.8 517.13 267.04C514.83 268.273 512.687 269.781 510.75 271.53C508.763 273.502 507.126 275.798 505.91 278.32C504.684 280.876 503.284 283.345 501.72 285.71C500.925 286.812 500.006 287.819 498.98 288.71C497.969 289.57 496.857 290.306 495.67 290.9C493.522 291.956 491.283 292.816 488.98 293.47C486.84 294.13 484.84 294.72 483.1 295.47C481.521 296.098 480.018 296.903 478.62 297.87C477.568 298.6 476.623 299.471 475.81 300.46C475.13 301.318 474.562 302.259 474.12 303.26C474.191 302.983 474.285 302.712 474.4 302.45C474.728 301.695 475.148 300.983 475.65 300.33C476.448 299.299 477.391 298.39 478.45 297.63C479.854 296.629 481.367 295.79 482.96 295.13C484.886 294.345 486.852 293.661 488.85 293.08C491.12 292.41 493.328 291.547 495.45 290.5C496.576 289.913 497.632 289.202 498.6 288.38C499.587 287.501 500.472 286.515 501.24 285.44C502.782 283.087 504.169 280.635 505.39 278.1C506.645 275.522 508.336 273.181 510.39 271.18C512.362 269.405 514.545 267.88 516.89 266.64C519.09 265.41 521.22 264.34 523.15 263.21C524.939 262.198 526.616 260.998 528.15 259.63C530.448 257.707 532.153 255.173 533.07 252.32C533.327 251.252 533.468 250.159 533.49 249.06V249.06Z" fill="#FAFAFA"/>
<path d="M472.76 273C472.72 272.938 472.69 272.871 472.67 272.8C472.595 272.607 472.532 272.41 472.48 272.21C472.309 271.414 472.343 270.588 472.58 269.81C473.14 267.81 475.35 265.24 478.91 263.97C480.69 263.36 482.7 262.97 484.8 262.45C486.544 262.161 488.194 261.459 489.611 260.403C491.029 259.347 492.174 257.968 492.95 256.38C493.519 255.214 494.016 254.016 494.44 252.79C495.222 250.128 496.284 247.557 497.61 245.12C499.129 242.724 501.434 240.932 504.13 240.05C506.583 239.254 509.085 238.619 511.62 238.15C513.883 237.715 516.074 236.968 518.13 235.93C519.872 234.935 521.374 233.569 522.53 231.93C524.238 229.563 525.211 226.746 525.33 223.83C525.335 222.76 525.264 221.69 525.12 220.63C525.422 221.669 525.56 222.748 525.53 223.83C525.491 226.809 524.55 229.707 522.83 232.14C521.659 233.833 520.125 235.244 518.34 236.27C516.256 237.347 514.031 238.125 511.73 238.58C509.218 239.057 506.74 239.695 504.31 240.49C501.722 241.338 499.509 243.06 498.05 245.36C496.746 247.764 495.697 250.298 494.92 252.92C494.488 254.168 493.977 255.387 493.39 256.57C492.798 257.706 492.043 258.751 491.15 259.67C489.394 261.272 487.232 262.361 484.9 262.82C482.78 263.36 480.78 263.7 479.03 264.28C475.56 265.46 473.36 267.89 472.77 269.83C472.528 270.578 472.463 271.372 472.58 272.15C472.665 272.427 472.725 272.712 472.76 273V273Z" fill="#FAFAFA"/>
<path d="M529.79 327C529.831 327.208 529.854 327.418 529.86 327.63C529.879 328.236 529.815 328.841 529.67 329.43C529.042 331.598 527.712 333.497 525.89 334.83C524.673 335.799 523.327 336.594 521.89 337.19C520.36 337.84 518.67 338.36 516.89 338.91C515.042 339.45 513.235 340.118 511.48 340.91C509.657 341.781 508.023 343 506.67 344.5C505.21 346.02 503.95 347.69 502.55 349.17C501.211 350.604 499.655 351.818 497.94 352.77C495.021 354.363 491.755 355.214 488.43 355.25C486.203 355.274 483.989 354.905 481.89 354.16C481.32 353.964 480.766 353.726 480.23 353.45C480.035 353.369 479.85 353.265 479.68 353.14C479.884 353.189 480.081 353.26 480.27 353.35C480.819 353.585 481.38 353.792 481.95 353.97C484.045 354.627 486.235 354.934 488.43 354.88C491.682 354.796 494.865 353.928 497.71 352.35C499.372 351.409 500.879 350.218 502.18 348.82C503.55 347.36 504.8 345.7 506.29 344.14C507.723 342.584 509.45 341.327 511.37 340.44C513.151 339.645 514.985 338.977 516.86 338.44C518.62 337.9 520.3 337.44 521.86 336.78C523.255 336.209 524.567 335.452 525.76 334.53C527.552 333.264 528.888 331.455 529.57 329.37C529.717 328.589 529.791 327.795 529.79 327V327Z" fill="#FAFAFA"/>
<path d="M524.88 194.46L516.54 194.66C516.219 196.342 515.581 197.947 514.66 199.39C507.66 187.29 502.29 171.09 500.95 164.58C501.15 163.93 501.38 163.21 501.67 162.41C501.878 161.195 501.841 159.95 501.56 158.75C501.32 157.3 500.92 155.35 500.8 154.45C500.43 151.69 499.98 151.26 499.02 151.57C497.72 152 499.56 159.3 498.49 159.46C497.91 159.54 497.21 157.04 497.01 154.99C496.81 152.94 495.87 146.62 495.2 146.2C494.2 145.58 493.33 146.56 493.59 148.6C493.85 150.64 494.16 156.84 493.08 156.93C492 157.02 491.08 146.54 491.08 146.54C491.08 146.54 491.25 144.26 489.99 144.31C487.73 144.41 489.5 155.45 489.69 156.5C489.83 157.22 488.69 157.36 488.55 156.57C488.41 155.78 487.89 146.1 485.55 146.18C483.77 146.18 486.92 155.27 485.92 157.37C484.92 159.47 484.24 150.25 482.55 150.37C481.92 150.42 481.45 150.54 482.61 155.75C483.721 159.889 485.056 163.965 486.61 167.96C489.29 182.41 501.05 228.64 519.48 220.18C529.8 215.44 533.98 194.46 533.98 194.46H524.88Z" fill="#E6A992"/>
<path d="M489.33 157.2C489.409 157.22 489.491 157.22 489.57 157.2C489.691 157.163 489.794 157.084 489.862 156.978C489.93 156.872 489.957 156.745 489.94 156.62C489.94 156 489.82 155.1 489.68 153.93C489.446 152.52 489.292 151.097 489.22 149.67C489.22 148.83 489.22 147.93 489.27 146.98C489.285 146.497 489.335 146.016 489.42 145.54C489.5 145.09 489.8 144.54 490.15 144.63H490.21C490.56 144.63 490.84 144.89 490.95 145.31C491.074 145.745 491.121 146.198 491.09 146.65V146.65C491.296 149.45 491.653 152.238 492.16 155C492.24 155.37 492.32 155.75 492.44 156.13C492.493 156.324 492.56 156.515 492.64 156.7C492.691 156.803 492.748 156.903 492.81 157C492.855 157.073 492.916 157.135 492.989 157.18C493.062 157.225 493.145 157.252 493.23 157.26C493.376 157.244 493.513 157.185 493.625 157.091C493.738 156.996 493.819 156.871 493.86 156.73C493.946 156.534 494.01 156.33 494.05 156.12C494.128 155.717 494.181 155.309 494.21 154.9C494.301 153.234 494.278 151.563 494.14 149.9C494.013 149.07 493.98 148.228 494.04 147.39C494.076 147.028 494.252 146.694 494.53 146.46C494.594 146.422 494.666 146.398 494.74 146.389C494.814 146.38 494.889 146.388 494.96 146.41C495.045 146.43 495.126 146.464 495.2 146.51C495.251 146.548 495.289 146.6 495.31 146.66C495.625 147.471 495.856 148.312 496 149.17C496.18 150.05 496.33 150.96 496.47 151.87C496.61 152.78 496.74 153.7 496.85 154.63C496.936 155.59 497.089 156.542 497.31 157.48C497.428 157.959 497.579 158.431 497.76 158.89C497.862 159.147 498.004 159.387 498.18 159.6C498.248 159.689 498.339 159.756 498.443 159.795C498.548 159.834 498.661 159.843 498.77 159.82C498.871 159.786 498.962 159.728 499.034 159.649C499.106 159.57 499.156 159.474 499.18 159.37C499.298 158.859 499.335 158.332 499.29 157.81C499.29 157.31 499.23 156.81 499.18 156.33C499.11 155.49 499.03 154.66 499 153.84C498.975 153.437 498.975 153.033 499 152.63C499.02 152.452 499.064 152.277 499.13 152.11C499.151 152.055 499.181 152.004 499.22 151.96V151.96H499.35C500.01 151.69 500.23 152.61 500.41 153.35C500.59 154.09 500.66 154.93 500.82 155.72C501.08 157.29 501.42 158.86 501.59 160.36C501.706 161.078 501.678 161.812 501.51 162.52C501.27 163.24 501.03 163.95 500.8 164.66V164.73V164.79C501.971 169.703 503.465 174.533 505.27 179.25C506.85 183.52 508.44 187.25 509.83 190.25C511.22 193.25 512.48 195.6 513.34 197.18L514.34 198.97C514.448 199.183 514.579 199.384 514.73 199.57C514.646 199.348 514.542 199.134 514.42 198.93L513.42 197.1C512.6 195.49 511.42 193.1 510.06 190.1C508.7 187.1 507.16 183.37 505.62 179.1C503.858 174.39 502.395 169.574 501.24 164.68V164.82C501.47 164.12 501.7 163.41 501.94 162.7C502.148 161.921 502.189 161.106 502.06 160.31C501.88 158.74 501.55 157.22 501.29 155.64C501.14 154.86 501.04 154.06 500.88 153.24C500.87 152.819 500.799 152.401 500.67 152C500.556 151.756 500.362 151.558 500.12 151.44C499.863 151.356 499.587 151.356 499.33 151.44H499.17C499.085 151.467 499.007 151.511 498.94 151.57C498.829 151.664 498.743 151.784 498.69 151.92C498.598 152.136 498.541 152.366 498.52 152.6C498.49 153.033 498.49 153.467 498.52 153.9C498.52 154.74 498.64 155.58 498.71 156.42C498.71 156.91 498.79 157.42 498.81 157.87C498.85 158.321 498.826 158.775 498.74 159.22C498.74 159.32 498.66 159.3 498.74 159.35L498.68 159.29C498.553 159.127 498.451 158.944 498.38 158.75C498.205 158.317 498.062 157.873 497.95 157.42C497.73 156.509 497.58 155.583 497.5 154.65C497.393 153.71 497.263 152.78 497.11 151.86C496.97 150.94 496.81 150.04 496.63 149.14C496.479 148.224 496.224 147.328 495.87 146.47C495.801 146.327 495.694 146.205 495.56 146.12C495.443 146.052 495.319 145.999 495.19 145.96C495.047 145.922 494.899 145.914 494.753 145.934C494.607 145.955 494.467 146.004 494.34 146.08C494.134 146.234 493.962 146.429 493.834 146.653C493.707 146.876 493.627 147.124 493.6 147.38C493.535 147.834 493.535 148.296 493.6 148.75C493.6 149.18 493.7 149.6 493.73 150.02C493.869 151.656 493.899 153.3 493.82 154.94C493.797 155.33 493.746 155.717 493.67 156.1C493.641 156.279 493.591 156.453 493.52 156.62C493.494 156.686 493.457 156.747 493.41 156.8C493.41 156.89 493.34 156.8 493.35 156.92C493.35 156.82 493.35 156.92 493.35 156.79C493.306 156.722 493.266 156.652 493.23 156.58C493.16 156.42 493.1 156.24 493.04 156.07C492.93 155.71 492.85 155.34 492.77 154.98C492.248 152.242 491.871 149.478 491.64 146.7V146.7C491.67 146.197 491.612 145.693 491.47 145.21C491.404 144.958 491.269 144.729 491.08 144.55C490.982 144.455 490.866 144.382 490.739 144.334C490.612 144.285 490.476 144.264 490.34 144.27H490.4C490.231 144.245 490.058 144.271 489.903 144.344C489.748 144.417 489.619 144.534 489.53 144.68C489.381 144.918 489.279 145.183 489.23 145.46C489.146 145.956 489.099 146.457 489.09 146.96C489.09 147.96 489.09 148.83 489.09 149.68C489.185 151.117 489.368 152.546 489.64 153.96C489.81 155.12 489.94 156.02 490 156.63C490.019 156.737 490.001 156.847 489.948 156.942C489.895 157.036 489.811 157.11 489.71 157.15C489.41 157.18 489.32 157.19 489.33 157.2Z" fill="#A36957"/>
<path d="M424.2 208.23C422.248 208.188 420.3 208.414 418.41 208.9C413.24 210.26 404.33 215.66 403.96 222.33H410.44C410.44 222.33 406.81 230.05 407.87 229.33C410.64 227.47 416.14 221.88 416.14 221.88L424.2 208.23Z" fill="#E5A992"/>
<path d="M512.53 92C512.38 92 511.8 86.66 511.22 80C510.64 73.34 510.28 68 510.42 68C510.56 68 511.15 73.34 511.73 80C512.31 86.66 512.67 92 512.53 92Z" fill="#263238"/>
<path d="M540.94 68.4099C541.05 68.4899 536.68 74.8399 531.17 82.5899C525.66 90.3399 521.09 96.5899 520.97 96.4699C520.85 96.3499 525.23 90.0399 530.74 82.2899C536.25 74.5399 540.82 68.3299 540.94 68.4099Z" fill="#263238"/>
<path d="M552.74 97.1901C552.74 97.3301 547.66 98.5001 541.34 99.8001C535.02 101.1 529.86 102.04 529.83 101.9C529.8 101.76 534.9 100.59 541.23 99.2901C547.56 97.9901 552.67 97.0501 552.74 97.1901Z" fill="#263238"/>
<path d="M212.67 234.54L177.27 416.34L172.67 440.14L408.67 439C419.27 438.95 428.67 429.54 432.06 415.56L473.92 243.93C476.51 233.32 470.83 222.28 462.79 222.29L223.87 222.54C218.67 222.53 214.01 227.45 212.67 234.54Z" fill="#E8505B"/>
<g opacity="0.5">
<path opacity="0.5" d="M212.67 234.54L177.27 416.34L172.67 440.14L408.67 439C419.27 438.95 428.67 429.54 432.06 415.56L473.92 243.93C476.51 233.32 470.83 222.28 462.79 222.29L223.87 222.54C218.67 222.53 214.01 227.45 212.67 234.54Z" fill="#E44C0D"/>
</g>
<path d="M386.06 404L361.06 202.59C360.06 194.34 353.47 188.18 345.7 188.21L290.9 188.38C288.864 188.403 286.853 188.84 284.991 189.666C283.129 190.491 281.455 191.687 280.07 193.18L254.07 220.85L101.67 221.67C92.36 221.72 85.2 230.54 86.43 240.44L109.64 426.59C110.64 434.83 117.23 440.98 124.98 440.97L390.63 440.44C420.21 441.05 423.04 432.32 423.04 432.32C389.08 439.83 386.06 404.05 386.06 404Z" fill="#F2A686"/>
<g opacity="0.5">
<path opacity="0.5" d="M271.51 363.72L262.55 373.34L193.55 311.26L202.51 301.64L271.51 363.72Z" fill="#3C3C3C"/>
<path opacity="0.5" d="M258.8 299.51L268.7 308.42L206.26 375.47L196.36 366.56L258.8 299.51Z" fill="#3C3C3C"/>
</g>
<path d="M423.99 103.78C423.666 103.644 423.388 103.418 423.188 103.129C422.988 102.841 422.874 102.501 422.86 102.15L422.46 92.8699C422.446 92.5816 422.499 92.2939 422.615 92.0297C422.732 91.7654 422.908 91.5319 423.13 91.3476C423.352 91.1632 423.614 91.0331 423.896 90.9676C424.177 90.902 424.469 90.9029 424.75 90.9699C425.524 91.137 426.325 91.1442 427.102 90.9912C427.879 90.8382 428.617 90.5281 429.27 90.0799C429.871 89.6993 430.388 89.1994 430.789 88.6112C431.19 88.023 431.466 87.3589 431.6 86.6599C431.691 85.9522 431.638 85.2334 431.446 84.5463C431.253 83.8592 430.925 83.2178 430.48 82.6599C430.011 82.0253 429.422 81.4892 428.746 81.0826C428.07 80.6759 427.32 80.4065 426.54 80.2899C424.967 80.2025 423.409 80.6485 422.121 81.5559C420.832 82.4633 419.888 83.779 419.44 85.2899C419.291 85.7478 418.97 86.1303 418.546 86.3579C418.122 86.5855 417.626 86.6406 417.162 86.5117C416.698 86.3828 416.301 86.0799 416.055 85.666C415.809 85.2521 415.732 84.7592 415.84 84.2899C416.52 81.9134 417.998 79.8435 420.025 78.4285C422.052 77.0134 424.505 76.3395 426.97 76.5199C428.253 76.6909 429.489 77.118 430.604 77.776C431.719 78.4339 432.69 79.3092 433.46 80.3499C434.209 81.3145 434.757 82.4195 435.071 83.5995C435.386 84.7795 435.46 86.0106 435.29 87.2199C435.063 88.4275 434.591 89.5757 433.903 90.5939C433.215 91.612 432.326 92.4785 431.29 93.1399C429.79 94.15 428.037 94.7214 426.23 94.7899L426.54 101.95C426.552 102.265 426.484 102.577 426.342 102.858C426.201 103.14 425.991 103.381 425.732 103.559C425.472 103.738 425.172 103.848 424.859 103.879C424.546 103.911 424.23 103.863 423.94 103.74L423.99 103.78Z" fill="#E44C0D"/>
<path d="M426.73 107.58C426.751 107.882 426.682 108.183 426.532 108.446C426.381 108.709 426.157 108.921 425.886 109.056C425.615 109.191 425.31 109.243 425.009 109.204C424.709 109.166 424.427 109.039 424.199 108.84C423.97 108.641 423.806 108.379 423.727 108.087C423.648 107.795 423.657 107.486 423.754 107.199C423.85 106.912 424.029 106.66 424.269 106.475C424.509 106.29 424.798 106.18 425.1 106.16C425.301 106.145 425.502 106.17 425.693 106.233C425.884 106.297 426.06 106.398 426.211 106.53C426.363 106.662 426.487 106.823 426.576 107.003C426.665 107.183 426.717 107.379 426.73 107.58Z" fill="#E8505B"/>
<path d="M391.86 90.69C391.903 90.4921 391.933 90.2917 391.95 90.09C391.95 89.65 392.06 89.09 392.14 88.3C392.238 87.33 392.402 86.3679 392.63 85.42C392.76 84.86 392.83 84.24 393.03 83.61C393.23 82.98 393.43 82.3 393.65 81.61C394.808 78.1912 396.495 74.9754 398.65 72.08C401.474 68.3306 405.055 65.2166 409.16 62.94C411.496 61.6226 413.985 60.595 416.57 59.88C419.36 59.1404 422.234 58.764 425.12 58.76C426.64 58.7356 428.161 58.8157 429.67 59C430.44 59.08 431.2 59.28 431.97 59.41C432.749 59.5433 433.517 59.7305 434.27 59.97C437.422 60.8508 440.42 62.2099 443.16 64C449.252 67.9512 453.893 73.7781 456.38 80.6C457.72 84.2542 458.397 88.118 458.38 92.01C458.421 96.0194 457.712 100.001 456.29 103.75L455.84 104.89L455.78 105.04L455.84 105.19C458.35 110.96 460.84 116.63 463.19 122.12L463.61 121.64L448.61 115.89L448.43 115.82L448.28 115.96C444.312 119.805 439.454 122.608 434.14 124.12C429.599 125.37 424.845 125.643 420.191 124.921C415.537 124.199 411.088 122.497 407.14 119.93C403.906 117.809 401.056 115.155 398.71 112.08C395.311 107.592 393.109 102.313 392.31 96.74C392.19 95.74 392.09 94.9 392 94.14C391.91 93.38 392 92.76 391.95 92.23C391.9 91.7 391.95 91.35 391.95 91.06C392 91.0524 392.045 91.0263 392.076 90.9868C392.108 90.9474 392.123 90.8975 392.119 90.8472C392.116 90.7969 392.093 90.7499 392.056 90.7156C392.019 90.6813 391.97 90.6622 391.92 90.6622C391.87 90.6622 391.821 90.6813 391.784 90.7156C391.747 90.7499 391.724 90.7969 391.721 90.8472C391.717 90.8975 391.732 90.9474 391.764 90.9868C391.795 91.0263 391.84 91.0524 391.89 91.06C391.89 91.35 391.89 91.74 391.89 92.23C391.89 92.72 391.89 93.4 391.89 94.16C391.89 94.92 392.06 95.79 392.16 96.78C392.489 99.1852 393.062 101.551 393.87 103.84C395.015 106.863 396.555 109.721 398.45 112.34C400.805 115.47 403.676 118.175 406.94 120.34C410.937 122.972 415.448 124.723 420.174 125.478C424.9 126.233 429.732 125.975 434.35 124.72C439.728 123.192 444.647 120.362 448.67 116.48L448.34 116.55L463.34 122.33L464.09 122.62L463.76 121.85C461.38 116.36 458.92 110.7 456.42 104.92V105.21L456.88 104.04C458.339 100.209 459.065 96.1387 459.02 92.04C459.051 88.0653 458.374 84.1169 457.02 80.38C454.479 73.4221 449.735 67.4845 443.51 63.47C440.701 61.6382 437.624 60.2549 434.39 59.37C433.625 59.1278 432.843 58.944 432.05 58.82C431.27 58.68 430.5 58.48 429.72 58.41C428.191 58.2201 426.651 58.1333 425.11 58.15C422.178 58.1624 419.259 58.5591 416.43 59.33C413.811 60.0738 411.289 61.128 408.92 62.47C404.774 64.8025 401.171 67.9896 398.35 71.82C396.201 74.7634 394.537 78.0313 393.42 81.5C393.21 82.22 393.01 82.91 392.83 83.5C392.671 84.1028 392.544 84.7137 392.45 85.33C392.236 86.2844 392.095 87.2539 392.03 88.23C391.97 89 391.93 89.59 391.9 90.03C391.858 90.2473 391.845 90.4692 391.86 90.69Z" fill="#263238"/>
</g>
<defs>
<clipPath id="clip0_18_2">
<rect width="601.55" height="443.06" fill="white"/>
</clipPath>
</defs>
</svg>
