<svg width="698" height="528" viewBox="0 0 698 528" fill="none" xmlns="http://www.w3.org/2000/svg">
<path d="M341.852 507.23C408.917 507.23 463.284 501.972 463.284 495.486C463.284 489 408.917 483.742 341.852 483.742C274.786 483.742 220.419 489 220.419 495.486C220.419 501.972 274.786 507.23 341.852 507.23Z" fill="#F1F2F2"/>
<path d="M405.373 66.963C384.593 76.4169 364.245 87.0374 343.858 96.6814C286.074 124.023 225.578 135.43 163.03 146.591C113.677 155.397 59.2585 169.59 31.7532 215.421C2.19186 264.678 30.371 333.629 68.4932 370.217C128.1 427.403 216.55 439.782 295.715 432.519C399.469 422.978 514.272 390.49 600.537 330.522C662.735 287.314 686.318 220.109 661.517 147.9C637.761 78.7674 574.267 35.1275 501.076 39.6384C467.265 41.734 435.855 53.0933 405.373 66.963Z" fill="#F1F2F2"/>
<path d="M359.993 142.776H322.618V155.492H359.993V142.776Z" fill="#C5403F"/>
<path d="M388.811 67.1321H294.896C290.581 67.1321 287.083 70.6316 287.083 74.9484V134.96C287.083 139.277 290.581 142.776 294.896 142.776H388.811C393.126 142.776 396.625 139.277 396.625 134.96V74.9484C396.625 70.6316 393.126 67.1321 388.811 67.1321Z" fill="#F8D2C2"/>
<path d="M334.34 104.317C338.273 94.9149 333.843 84.1035 324.445 80.1688C315.046 76.234 304.238 80.6659 300.305 90.0676C296.372 99.4693 300.802 110.281 310.2 114.215C319.599 118.15 330.407 113.718 334.34 104.317Z" fill="#3C3C3C"/>
<path d="M332.451 102.193C335.238 93.8181 330.71 84.7688 322.338 81.9811C313.965 79.1935 304.919 83.723 302.133 92.0982C299.346 100.473 303.874 109.523 312.246 112.31C320.618 115.098 329.665 110.568 332.451 102.193Z" fill="#E44C0D"/>
<path d="M326.527 78.7678H316.648V115.585H326.527V78.7678Z" fill="#F2A686"/>
<path d="M314.528 78.7678H309.094V115.585H314.528V78.7678Z" fill="#F2A686"/>
<path d="M383.692 103.547C387.215 93.984 382.321 83.3746 372.761 79.8503C363.201 76.3261 352.596 81.2216 349.072 90.7848C345.549 100.348 350.443 110.957 360.003 114.482C369.563 118.006 380.169 113.11 383.692 103.547Z" fill="#3C3C3C"/>
<path d="M377.687 108.477C383.927 102.235 383.927 92.1155 377.687 85.8739C371.448 79.6323 361.332 79.6323 355.092 85.8739C348.853 92.1155 348.853 102.235 355.092 108.477C361.332 114.718 371.448 114.718 377.687 108.477Z" fill="#E44C0D"/>
<path d="M365.163 78.7333H356.693V118.307H365.163V78.7333Z" fill="#F2A686"/>
<path d="M370.761 79.1307H367.145V118.705H370.761V79.1307Z" fill="#F2A686"/>
<path d="M375.728 79.1654H372.113V118.739H375.728V79.1654Z" fill="#F2A686"/>
<path d="M362.688 122.598H321.015C319.648 122.598 318.54 123.706 318.54 125.074V133.145C318.54 134.512 319.648 135.621 321.015 135.621H362.688C364.055 135.621 365.163 134.512 365.163 133.145V125.074C365.163 123.706 364.055 122.598 362.688 122.598Z" fill="white"/>
<path d="M324.808 122.598H322.618V135.621H324.808V122.598Z" fill="#172C59"/>
<path d="M329.991 122.598H327.801V135.621H329.991V122.598Z" fill="#172C59"/>
<path d="M335.174 122.598H332.984V135.621H335.174V122.598Z" fill="#172C59"/>
<path d="M340.357 122.598H338.167V135.621H340.357V122.598Z" fill="#172C59"/>
<path d="M345.54 122.598H343.35V135.621H345.54V122.598Z" fill="#172C59"/>
<path d="M350.723 122.598H348.533V135.621H350.723V122.598Z" fill="#172C59"/>
<path d="M355.907 122.598H353.717V135.621H355.907V122.598Z" fill="#172C59"/>
<path d="M361.09 122.598H358.9V135.621H361.09V122.598Z" fill="#172C59"/>
<path d="M375.11 58.9269H308.597V67.132H375.11V58.9269Z" fill="#E44C0D"/>
<path d="M287.078 81.1919H276.043V126.007H287.078V81.1919Z" fill="#3C3C3C"/>
<path d="M407.656 82.5486H396.62V127.364H407.656V82.5486Z" fill="#3C3C3C"/>
<path d="M385.779 155.492H297.924C292.824 155.492 288.69 159.628 288.69 164.73V295.658C288.69 300.76 292.824 304.896 297.924 304.896H385.779C390.879 304.896 395.014 300.76 395.014 295.658V164.73C395.014 159.628 390.879 155.492 385.779 155.492Z" fill="#F2A686"/>
<path d="M400.806 277.455H282.733V316.148H400.806V277.455Z" fill="#F8D2C2"/>
<path d="M307.707 155.492H373.62V208.206C373.62 216.947 370.149 225.33 363.97 231.511C357.791 237.692 349.411 241.165 340.672 241.165V241.165C331.934 241.165 323.554 237.692 317.375 231.511C311.196 225.33 307.725 216.947 307.725 208.206V155.492H307.707Z" fill="#E44C0D"/>
<path d="M327.395 179.304H322.212V209.243H327.395V179.304Z" fill="#D1D3D4"/>
<path d="M337.761 179.304H332.578V209.243H337.761V179.304Z" fill="#D1D3D4"/>
<path d="M348.128 179.304H342.944V209.243H348.128V179.304Z" fill="#D1D3D4"/>
<path d="M358.494 179.304H353.311V209.243H358.494V179.304Z" fill="#D1D3D4"/>
<path d="M318.54 304.901H301.336V441.329H318.54V304.901Z" fill="#E44C0D"/>
<path d="M382.203 304.901H364.999V441.329H382.203V304.901Z" fill="#E44C0D"/>
<path d="M315.62 381.254C323.392 378.113 327.147 369.263 324.007 361.489C320.867 353.714 312.02 349.957 304.248 353.099C296.476 356.24 292.721 365.089 295.861 372.864C299.001 380.639 307.848 384.395 315.62 381.254Z" fill="#F2A686"/>
<path d="M382.826 380.993C389.487 375.902 390.761 366.374 385.672 359.71C380.583 353.047 371.058 351.772 364.397 356.863C357.736 361.954 356.462 371.482 361.551 378.146C366.64 384.809 376.165 386.084 382.826 380.993Z" fill="#F2A686"/>
<path d="M318.54 495.486H282.733L293.203 448.338C293.643 446.352 294.746 444.576 296.331 443.302C297.915 442.028 299.887 441.332 301.92 441.329H318.523L318.54 495.486Z" fill="#F2A686"/>
<path d="M318.54 495.486H274.915C274.916 491.072 276.67 486.838 279.791 483.717C282.912 480.596 287.144 478.842 291.558 478.842H318.523L318.54 495.486Z" fill="#E44C0D"/>
<path d="M289.592 488.543H283.515V495.486H289.592V488.543Z" fill="#D1D3D4"/>
<path d="M299.535 488.543H293.458V495.486H299.535V488.543Z" fill="#D1D3D4"/>
<path d="M308.904 488.543H302.827V495.486H308.904V488.543Z" fill="#D1D3D4"/>
<path d="M364.981 495.486H400.789L390.319 448.338C389.877 446.35 388.771 444.572 387.183 443.298C385.595 442.024 383.621 441.329 381.585 441.329H364.981V495.486Z" fill="#F2A686"/>
<path d="M364.981 495.486H408.606C408.605 491.072 406.852 486.84 403.732 483.718C400.612 480.597 396.381 478.844 391.968 478.842H364.981V495.486Z" fill="#E44C0D"/>
<path d="M393.942 495.49H400.02V488.547H393.942V495.49Z" fill="#D1D3D4"/>
<path d="M384.004 495.49H390.081V488.547H384.004V495.49Z" fill="#D1D3D4"/>
<path d="M374.635 495.49H380.712V488.547H374.635V495.49Z" fill="#D1D3D4"/>
<path d="M313.132 395.672H306.744V441.33H313.132V395.672Z" fill="#D1D3D4"/>
<path d="M376.795 395.672H370.406V441.33H376.795V395.672Z" fill="#D1D3D4"/>
<path d="M313.215 304.901H306.826V314.039H313.215V304.901Z" fill="#D1D3D4"/>
<path d="M376.877 304.901H370.488V314.039H376.877V304.901Z" fill="#D1D3D4"/>
<path d="M288.69 163.65H276.047H258.644V194.055V194.271H264.583V258.456L270.104 258.106V194.271H288.69V163.65Z" fill="#E44C0D"/>
<path d="M270.104 183.508H264.588V194.271H270.104V183.508Z" fill="#D1D3D4"/>
<path d="M267.084 269.773C271.746 269.773 275.524 265.993 275.524 261.33C275.524 256.667 271.746 252.887 267.084 252.887C262.423 252.887 258.644 256.667 258.644 261.33C258.644 265.993 262.423 269.773 267.084 269.773Z" fill="#F2A686"/>
<path d="M395.014 163.65H407.661H425.059V194.055V194.271H419.12V258.456L413.6 258.106V194.271H395.014V163.65Z" fill="#E44C0D"/>
<path d="M413.6 194.271H419.115V183.508H413.6V194.271Z" fill="#D1D3D4"/>
<path d="M416.619 269.773C421.28 269.773 425.059 265.993 425.059 261.33C425.059 256.667 421.28 252.887 416.619 252.887C411.958 252.887 408.179 256.667 408.179 261.33C408.179 265.993 411.958 269.773 416.619 269.773Z" fill="#F2A686"/>
<path d="M253.72 241.502L413.172 288.412C413.556 296.681 416.586 304.607 421.816 311.022C427.046 317.437 434.198 322 442.218 324.039C450.238 326.078 458.7 325.484 466.357 322.345C474.014 319.207 480.459 313.689 484.743 306.607L460.123 307.16C456.105 307.251 452.191 305.877 449.112 303.294C446.032 300.711 443.997 297.096 443.385 293.122V293.122C443.029 290.805 443.167 288.438 443.793 286.179C444.418 283.919 445.516 281.818 447.014 280.014C448.511 278.211 450.374 276.746 452.48 275.716C454.586 274.686 456.886 274.116 459.229 274.042L487.87 273.139C485.418 266.571 481.225 260.796 475.74 256.432C470.255 252.068 463.686 249.281 456.737 248.37C449.788 247.458 442.723 248.457 436.299 251.259C429.875 254.06 424.334 258.559 420.273 264.272L260.817 217.366C260.43 209.099 257.397 201.175 252.166 194.763C246.935 188.351 239.782 183.79 231.763 181.753C223.744 179.717 215.283 180.312 207.628 183.451C199.973 186.59 193.529 192.107 189.246 199.188L213.866 198.635C217.884 198.545 221.797 199.92 224.876 202.503C227.956 205.086 229.991 208.7 230.603 212.673C230.961 214.991 230.823 217.358 230.198 219.618C229.573 221.877 228.475 223.979 226.977 225.783C225.479 227.586 223.616 229.051 221.51 230.081C219.404 231.11 217.103 231.681 214.76 231.754L186.119 232.657C188.571 239.224 192.764 245 198.249 249.364C203.734 253.727 210.303 256.514 217.252 257.426C224.201 258.337 231.266 257.339 237.69 254.537C244.114 251.735 249.655 247.236 253.716 241.523L253.72 241.502Z" fill="#6D6D6D"/>
<path d="M271.36 233.582C271.556 232.915 271.881 232.294 272.316 231.753C272.752 231.213 273.289 230.763 273.899 230.43C274.508 230.098 275.177 229.888 275.867 229.815C276.558 229.741 277.256 229.804 277.921 230L391.087 263.27C392.431 263.666 393.563 264.58 394.234 265.811C394.906 267.041 395.062 268.488 394.668 269.833V269.833C394.272 271.178 393.359 272.311 392.129 272.983C390.898 273.654 389.452 273.81 388.107 273.415L274.941 240.145C274.275 239.949 273.654 239.625 273.113 239.189C272.573 238.753 272.123 238.215 271.791 237.606C271.458 236.996 271.249 236.327 271.175 235.637C271.101 234.946 271.164 234.248 271.36 233.582Z" fill="white"/>
<path d="M298.896 214.251C296.821 213.34 294.47 213.29 292.358 214.111C290.246 214.933 288.546 216.558 287.631 218.632L279.226 237.79L283.26 239.562L266.415 258.785C265.933 259.334 265.69 260.053 265.738 260.782C265.785 261.511 266.121 262.192 266.67 262.674V262.674C266.941 262.913 267.258 263.096 267.6 263.212C267.943 263.329 268.305 263.377 268.666 263.353C269.027 263.329 269.38 263.234 269.705 263.074C270.029 262.914 270.319 262.691 270.557 262.419L288.564 241.886L294.901 244.669L303.302 225.545C303.756 224.514 304.002 223.404 304.026 222.278C304.05 221.152 303.852 220.032 303.442 218.983C303.033 217.934 302.421 216.976 301.641 216.164C300.861 215.351 299.928 214.701 298.896 214.251Z" fill="#E44C0D"/>
<path d="M279.226 237.808L294.896 244.686L296.918 240.076L281.338 232.994L279.226 237.808Z" fill="#E44C0D"/>
<path d="M411.293 285.638L397.169 286.935L395.601 269.907C395.429 268.033 396.009 266.168 397.211 264.721C398.414 263.275 400.142 262.366 402.015 262.194V262.194C403.888 262.021 405.753 262.599 407.2 263.802C408.647 265.004 409.556 266.732 409.729 268.606L411.293 285.638Z" fill="#E44C0D"/>
<path d="M410.889 281.508L396.764 282.807L397.146 286.963L411.271 285.665L410.889 281.508Z" fill="#F2A686"/>
<path d="M404.814 292.63C404.054 292.701 403.297 292.468 402.709 291.982C402.12 291.496 401.748 290.797 401.674 290.037L401.354 286.58L407.103 286.053L407.423 289.51C407.488 290.269 407.25 291.023 406.761 291.608C406.272 292.192 405.572 292.559 404.814 292.63V292.63Z" fill="#E44C0D"/>
<path d="M344.443 26.1147H338.167V58.9268H344.443V26.1147Z" fill="#3C3C3C"/>
<path d="M341.212 32.1337C346.465 32.1337 350.723 27.874 350.723 22.6194C350.723 17.3647 346.465 13.105 341.212 13.105C335.959 13.105 331.701 17.3647 331.701 22.6194C331.701 27.874 335.959 32.1337 341.212 32.1337Z" fill="#E44C0D"/>
<path d="M348.376 20.7395C349.03 17.9517 347.301 15.1612 344.514 14.5069C341.728 13.8525 338.938 15.5819 338.284 18.3697C337.63 21.1575 339.359 23.948 342.146 24.6023C344.932 25.2567 347.722 23.5273 348.376 20.7395Z" fill="#F8D2C2"/>
<path d="M287.083 87.1588H281.563V92.6808H287.083V87.1588Z" fill="#F2A686"/>
<path d="M287.083 96.2802H281.563V101.802H287.083V96.2802Z" fill="#F2A686"/>
<path d="M287.083 105.401H281.563V110.923H287.083V105.401Z" fill="#F2A686"/>
<path d="M287.083 114.522H281.563V120.044H287.083V114.522Z" fill="#F2A686"/>
<path d="M402.097 88.5155H396.577V94.0375H402.097V88.5155Z" fill="#F2A686"/>
<path d="M402.097 97.6367H396.577V103.159H402.097V97.6367Z" fill="#F2A686"/>
<path d="M402.097 106.758H396.577V112.28H402.097V106.758Z" fill="#F2A686"/>
<path d="M402.097 115.875H396.577V121.397H402.097V115.875Z" fill="#F2A686"/>
<path d="M429.309 135.621L461.915 91.9593L463.06 115.875L499.657 91.2766L454.771 138.857L455.35 113.157L429.309 135.621Z" fill="#F7941D"/>
<path d="M261.093 309.468L200.731 367.172L234.949 356.404L198.209 408.34L273.667 338.222L247.034 340.741L261.093 309.468Z" fill="#F7941D"/>
<path d="M258.644 147.598L247.285 106.123L238.46 120.969L222.012 92.4863L234.849 146.246L244.075 127.791L258.644 147.598Z" fill="#F7941D"/>
<path d="M404.602 335.703L412.053 362.92L417.845 353.177L428.639 371.869L420.217 336.594L414.161 348.7L404.602 335.703Z" fill="#F7941D"/>
</svg>
