<svg width="681" height="412" viewBox="0 0 681 412" fill="none" xmlns="http://www.w3.org/2000/svg">
<g clip-path="url(#clip0_20_129)">
<path d="M332.75 121.03C331.943 121.031 331.142 120.896 330.38 120.63L318.15 116.39C316.948 115.97 315.876 115.242 315.043 114.278C314.209 113.315 313.643 112.15 313.4 110.9L310.95 98.1699C310.709 96.9182 310.803 95.6252 311.221 94.421C311.638 93.2168 312.366 92.1438 313.33 91.3099L323.12 82.8299C324.086 81.996 325.253 81.4297 326.506 81.1876C327.759 80.9454 329.053 81.0359 330.26 81.4499L342.5 85.6999C343.705 86.1171 344.779 86.844 345.615 87.8076C346.45 88.7712 347.018 89.9377 347.26 91.1899L349.7 103.91C349.938 105.162 349.845 106.455 349.429 107.66C349.013 108.865 348.29 109.941 347.33 110.78L337.53 119.26C336.202 120.407 334.504 121.035 332.75 121.03ZM321.15 108.97L332.59 112.97L341.75 105.05L339.46 93.1599L328.02 89.1599L318.87 97.0899L321.15 108.97Z" fill="#F5F5F5"/>
<path d="M475.59 84.08C474.783 84.0814 473.982 83.9462 473.22 83.68L467.02 81.53C465.817 81.1114 464.744 80.3839 463.911 79.4204C463.077 78.4568 462.511 77.2911 462.27 76.04L461.03 69.6C460.79 68.3492 460.883 67.0574 461.299 65.8536C461.715 64.6499 462.439 63.5763 463.4 62.74L468.4 58.44C469.364 57.6068 470.53 57.0417 471.782 56.8013C473.033 56.5608 474.326 56.6535 475.53 57.07L481.72 59.22C482.925 59.6372 483.999 60.3641 484.835 61.3277C485.67 62.2913 486.238 63.4578 486.48 64.71L487.72 71.15C487.96 72.4018 487.867 73.6948 487.449 74.899C487.031 76.1032 486.304 77.1762 485.34 78.01L480.34 82.31C479.017 83.4462 477.333 84.0737 475.59 84.08V84.08ZM470.04 74.08L475.44 75.95L479.75 72.21L478.67 66.61L473.28 64.74L468.96 68.54L470.04 74.08Z" fill="#F5F5F5"/>
<path d="M646.83 178.31C646.039 178.304 645.259 178.122 644.548 177.776C643.837 177.43 643.212 176.929 642.72 176.31L639.23 171.95C638.654 171.229 638.277 170.369 638.136 169.457C637.996 168.544 638.097 167.611 638.43 166.75L640.43 161.55C640.765 160.69 641.32 159.934 642.039 159.356C642.759 158.779 643.618 158.401 644.53 158.26L650.05 157.41C650.964 157.272 651.898 157.375 652.76 157.71C653.621 158.045 654.38 158.6 654.96 159.32L658.45 163.68C659.026 164.401 659.403 165.261 659.544 166.173C659.684 167.086 659.583 168.019 659.25 168.88L657.25 174.08C656.915 174.942 656.359 175.7 655.637 176.277C654.915 176.855 654.054 177.232 653.14 177.37L647.62 178.22C647.359 178.27 647.095 178.3 646.83 178.31V178.31ZM650.88 161.38H650.69L645.17 162.23C644.949 162.263 644.74 162.353 644.565 162.492C644.389 162.63 644.253 162.812 644.17 163.02L642.17 168.22C642.089 168.427 642.063 168.651 642.097 168.87C642.13 169.09 642.221 169.297 642.36 169.47L645.85 173.83C645.991 174.001 646.174 174.133 646.38 174.213C646.587 174.294 646.81 174.32 647.03 174.29L652.55 173.44C652.772 173.409 652.981 173.32 653.157 173.181C653.333 173.042 653.469 172.859 653.55 172.65L655.55 167.45C655.629 167.243 655.653 167.019 655.62 166.8C655.587 166.581 655.497 166.374 655.36 166.2V166.2L651.87 161.84C651.749 161.696 651.597 161.58 651.426 161.5C651.255 161.421 651.069 161.38 650.88 161.38V161.38Z" fill="#E0E0E0"/>
<path d="M23.8499 221.77C22.8355 221.768 21.8343 221.54 20.9191 221.103C20.004 220.665 19.198 220.029 18.5599 219.24L10.3599 209C9.62397 208.071 9.14435 206.965 8.96888 205.793C8.79342 204.621 8.92826 203.424 9.35994 202.32L14.1499 190.09C14.5818 188.986 15.2957 188.014 16.2204 187.272C17.1451 186.529 18.2483 186.043 19.4199 185.86L32.4199 183.86C33.5934 183.684 34.7926 183.818 35.898 184.25C37.0034 184.681 37.9764 185.395 38.7199 186.32L46.8499 196.54C47.5868 197.47 48.0669 198.578 48.2423 199.752C48.4178 200.925 48.2825 202.125 47.8499 203.23L43.1499 215.47C42.7187 216.577 42.0039 217.552 41.0772 218.296C40.1505 219.041 39.0444 219.528 37.8699 219.71L24.8699 221.71C24.5323 221.76 24.191 221.78 23.8499 221.77V221.77ZM15.9099 204.77L23.9099 214.77L36.6099 212.83L41.2699 200.83L33.2699 190.83L20.5699 192.78L15.9099 204.77Z" fill="#E0E0E0"/>
<path d="M57.03 132.14H49.3C48.379 132.143 47.4733 131.904 46.6732 131.448C45.8732 130.992 45.2066 130.334 44.74 129.54L40.87 122.85C40.4132 122.047 40.1731 121.139 40.1731 120.215C40.1731 119.291 40.4132 118.383 40.87 117.58L44.74 110.89C45.202 110.09 45.8668 109.425 46.6673 108.964C47.4678 108.502 48.3759 108.259 49.3 108.26H57.03C57.9541 108.259 58.8621 108.502 59.6627 108.964C60.4632 109.425 61.1279 110.09 61.59 110.89L65.46 117.54C65.9167 118.343 66.1569 119.251 66.1569 120.175C66.1569 121.099 65.9167 122.007 65.46 122.81L61.59 129.54C61.1226 130.333 60.4559 130.991 59.656 131.447C58.8561 131.903 57.9508 132.142 57.03 132.14V132.14ZM49.3 112.22C49.0777 112.22 48.8594 112.279 48.6665 112.389C48.4736 112.5 48.3129 112.659 48.2 112.85L44.34 119.54C44.2275 119.733 44.1683 119.952 44.1683 120.175C44.1683 120.398 44.2275 120.617 44.34 120.81L48.2 127.54C48.3124 127.733 48.4728 127.893 48.6656 128.005C48.8584 128.117 49.077 128.178 49.3 128.18H57.03C57.2564 128.181 57.4791 128.122 57.6757 128.01C57.8723 127.898 58.0359 127.736 58.15 127.54L62.01 120.85C62.1224 120.657 62.1817 120.438 62.1817 120.215C62.1817 119.992 62.1224 119.773 62.01 119.58L58.15 112.85C58.0371 112.659 57.8763 112.5 57.6834 112.389C57.4906 112.279 57.2723 112.22 57.05 112.22H49.3Z" fill="#EBEBEB"/>
<path d="M188.93 56.49L173.85 47.01L155.34 15.77L129.59 0L124.6 5.4L127.22 8.91L135.34 19.82L167.62 63.13L180.78 70.38L188.93 56.49Z" fill="#EBEBEB"/>
<path d="M169.98 78.9599L165.66 64.5699L118.24 10.3899L111.92 14.1299L121.93 42.6199L149.46 69.6599L155.63 86.5499L169.98 78.9599Z" fill="#EBEBEB"/>
<path d="M195.67 59.1699C195.67 59.1699 249.22 88.5599 260.01 98.4799C270.8 108.4 296.01 149.71 293.45 154.99C290.89 160.27 288.93 160.99 283.12 155.87C277.31 150.75 258.53 122.45 253.49 117.87C248.45 113.29 185.71 76.5399 185.71 76.5399L195.67 59.1699Z" fill="#E0E0E0"/>
<path d="M159.36 71.7601C168.727 71.7601 176.32 64.1668 176.32 54.8001C176.32 45.4333 168.727 37.8401 159.36 37.8401C149.993 37.8401 142.4 45.4333 142.4 54.8001C142.4 64.1668 149.993 71.7601 159.36 71.7601Z" fill="#EBEBEB"/>
<path d="M155.15 71.2099C156.516 71.467 157.9 71.6108 159.29 71.6399C160.917 71.6456 162.535 71.4062 164.09 70.9299C167.834 69.8343 171.079 67.4694 173.269 64.2413C175.459 61.0132 176.456 57.1234 176.09 53.2399C175.92 51.619 175.502 50.0338 174.85 48.5399C174.541 47.773 174.18 47.028 173.77 46.3099C173.331 45.5848 172.84 44.893 172.3 44.2399C170.068 41.4721 167.008 39.4928 163.568 38.5928C160.129 37.6929 156.491 37.9197 153.19 39.2399C152.408 39.5546 151.646 39.9186 150.91 40.3299C150.212 40.7619 149.544 41.2396 148.91 41.7599C147.644 42.7568 146.541 43.9443 145.64 45.2799C143.94 47.743 142.929 50.6152 142.71 53.5999C142.548 55.971 142.887 58.3497 143.705 60.5809C144.524 62.8122 145.803 64.846 147.46 66.5499C148.585 67.7375 149.883 68.7488 151.31 69.5499C152.541 70.1982 153.821 70.7466 155.14 71.1899C155.05 71.2013 154.96 71.2013 154.87 71.1899L154.09 70.9699C153.665 70.8621 153.25 70.7182 152.85 70.5399C152.289 70.3273 151.744 70.0733 151.22 69.7799C149.742 69.017 148.393 68.0285 147.22 66.8499C145.498 65.1323 144.161 63.0677 143.299 60.7935C142.437 58.5192 142.069 56.0874 142.22 53.6599C142.437 50.5898 143.473 47.6339 145.22 45.0999C146.148 43.7223 147.281 42.4947 148.58 41.4599C149.911 40.3535 151.414 39.4719 153.03 38.8499C156.428 37.487 160.174 37.2488 163.717 38.1702C167.261 39.0917 170.416 41.1243 172.72 43.9699C173.268 44.6483 173.769 45.3633 174.22 46.1099C174.644 46.8527 175.015 47.6246 175.33 48.4199C175.966 49.9493 176.357 51.569 176.49 53.2199C176.765 56.0805 176.31 58.9642 175.168 61.6014C174.026 64.2385 172.234 66.5432 169.96 68.2999C168.23 69.6502 166.253 70.6489 164.14 71.2399C162.556 71.7035 160.91 71.9161 159.26 71.8699C158.658 71.8724 158.056 71.8289 157.46 71.7399C157.019 71.709 156.58 71.6421 156.15 71.5399L155.36 71.3499C155.284 71.3132 155.213 71.2661 155.15 71.2099V71.2099Z" fill="#E0E0E0"/>
<path d="M156.96 64.07C155.125 63.5953 153.472 62.5869 152.21 61.1725C150.949 59.758 150.135 58.0011 149.872 56.124C149.609 54.2469 149.909 52.334 150.734 50.6274C151.558 48.9207 152.871 47.4971 154.505 46.5366C156.139 45.576 158.021 45.1218 159.913 45.2314C161.805 45.3409 163.623 46.0093 165.135 47.152C166.647 48.2947 167.786 49.8603 168.408 51.6507C169.031 53.4411 169.108 55.3758 168.63 57.21C167.99 59.6661 166.402 61.7679 164.214 63.0541C162.026 64.3403 159.417 64.7057 156.96 64.07Z" fill="#E0E0E0"/>
<path d="M156.96 64.0701C156.96 64.0001 157.79 64.2701 159.29 64.2701C161.085 64.2537 162.839 63.7307 164.35 62.7612C165.861 61.7916 167.067 60.4151 167.83 58.7901C168.529 57.2714 168.812 55.5941 168.65 53.9301C168.468 52.0958 167.748 50.3562 166.58 48.9301C165.333 47.3892 163.625 46.2888 161.706 45.7903C159.787 45.2917 157.759 45.4213 155.92 46.1601C155.047 46.4853 154.233 46.9515 153.51 47.5401C152.799 48.1069 152.182 48.7818 151.68 49.5401C150.73 50.9139 150.161 52.5148 150.03 54.1801C149.92 55.6337 150.153 57.0929 150.71 58.4401C151.516 60.4168 152.964 62.065 154.82 63.1201C155.513 63.4947 156.228 63.8286 156.96 64.1201C156.175 63.9822 155.418 63.7152 154.72 63.3301C152.77 62.3096 151.232 60.6453 150.37 58.6201C149.766 57.2218 149.502 55.7001 149.6 54.1801C149.714 52.4293 150.294 50.7409 151.28 49.2901C151.792 48.4925 152.423 47.7776 153.15 47.1701C153.911 46.5407 154.769 46.0376 155.69 45.6801C157.63 44.8947 159.772 44.7546 161.798 45.2805C163.824 45.8063 165.627 46.9702 166.94 48.6001C168.184 50.1019 168.953 51.9398 169.15 53.8801C169.306 55.6275 168.992 57.385 168.24 58.9701C167.584 60.3427 166.615 61.5417 165.41 62.4701C163.668 63.8192 161.513 64.5256 159.31 64.4701C158.51 64.4694 157.715 64.3341 156.96 64.0701V64.0701Z" fill="#E0E0E0"/>
<path d="M185.215 55.9219L178.286 67.9829C176.255 71.5169 177.474 76.0279 181.008 78.0584L181.658 78.4321C185.192 80.4626 189.703 79.2438 191.734 75.7097L198.664 63.6488C200.694 60.1147 199.475 55.6037 195.941 53.5732L195.291 53.1995C191.757 51.169 187.246 52.3878 185.215 55.9219Z" fill="#EBEBEB"/>
<path d="M178.29 67.9899C177.876 68.8803 177.596 69.8273 177.46 70.7999C177.357 71.9428 177.51 73.0942 177.91 74.1699C178.158 74.832 178.495 75.4577 178.91 76.0299C179.398 76.6579 179.986 77.2018 180.65 77.6399C181.378 78.131 182.164 78.5306 182.99 78.8299C184.433 79.3188 185.995 79.3331 187.447 78.8707C188.899 78.4082 190.165 77.4934 191.06 76.2599C193.36 72.4299 195.79 68.0399 198.41 63.5299C199.009 62.4607 199.324 61.2556 199.324 60.0299C199.324 58.8043 199.009 57.5992 198.41 56.5299C197.88 55.5031 197.103 54.6236 196.15 53.9699C195.225 53.3202 194.182 52.8581 193.08 52.6099C192.059 52.4026 191.004 52.4205 189.991 52.6623C188.977 52.9041 188.028 53.364 187.21 54.0099C185.64 55.1999 184.95 57.0099 184.03 58.4699L179.91 65.4699L178.77 67.3599C178.649 67.5874 178.505 67.8018 178.34 67.9999C178.439 67.7601 178.553 67.5263 178.68 67.2999C178.95 66.8199 179.3 66.1699 179.74 65.3699C180.74 63.6499 182.05 61.2499 183.74 58.2999L185.06 55.9599C185.547 55.086 186.195 54.3123 186.97 53.6799C187.827 52.9909 188.824 52.4963 189.891 52.2303C190.958 51.9644 192.07 51.9336 193.15 52.1399C194.304 52.3922 195.398 52.8678 196.37 53.5399C197.434 54.2061 198.312 55.1317 198.92 56.2299C199.574 57.3788 199.918 58.678 199.918 59.9999C199.918 61.3219 199.574 62.6211 198.92 63.7699C196.29 68.2999 193.92 72.6199 191.51 76.5299C190.847 77.4179 189.999 78.1519 189.026 78.6818C188.052 79.2117 186.976 79.5249 185.87 79.5999C184.87 79.6575 183.868 79.5217 182.92 79.1999C182.068 78.8728 181.258 78.443 180.51 77.9199C179.817 77.4533 179.205 76.8756 178.7 76.2099C178.278 75.5916 177.941 74.9188 177.7 74.2099C177.365 73.3034 177.215 72.3389 177.26 71.3736C177.305 70.4082 177.543 69.4616 177.96 68.5899C178.053 68.381 178.163 68.1803 178.29 67.9899V67.9899Z" fill="#E0E0E0"/>
<path d="M157.62 95.0801C157.62 95.0801 177.91 152.7 185.95 164.96C193.99 177.22 230.64 208.8 236.26 207.14C241.88 205.48 242.87 203.65 238.81 197.14C234.75 190.63 209.81 167.45 206.13 161.72C202.45 155.99 176.32 88.1201 176.32 88.1201L157.62 95.0801Z" fill="#E0E0E0"/>
<path d="M169.145 79.3806L156.117 84.2566C152.3 85.6853 150.364 89.938 151.793 93.7552L152.055 94.4577C153.484 98.2749 157.737 100.211 161.554 98.7825L174.582 93.9065C178.399 92.4778 180.335 88.2251 178.906 84.4078L178.643 83.7054C177.215 79.8882 172.962 77.9519 169.145 79.3806Z" fill="#EBEBEB"/>
<path d="M169.15 79.3701C169.379 79.2506 169.62 79.1567 169.87 79.0901C170.588 78.8853 171.333 78.7909 172.08 78.81C173.264 78.8494 174.422 79.1681 175.46 79.74C176.104 80.1098 176.696 80.5638 177.22 81.0901C177.791 81.6994 178.264 82.3945 178.62 83.1501C179.015 83.9735 179.304 84.8438 179.48 85.74C179.655 86.7352 179.628 87.7556 179.4 88.74C179.141 89.8236 178.649 90.8377 177.958 91.7116C177.268 92.5855 176.394 93.2982 175.4 93.8C171.16 95.51 166.51 97.1801 161.61 99.0401C160.37 99.4972 159.033 99.6269 157.728 99.4167C156.423 99.2065 155.194 98.6635 154.16 97.8401C153.175 97.0425 152.405 96.0112 151.92 94.8401C151.408 93.7618 151.116 92.5924 151.06 91.4001C151.023 90.2922 151.229 89.1897 151.665 88.1703C152.1 87.1509 152.754 86.2394 153.58 85.5001C154.33 84.8393 155.199 84.3269 156.14 83.99L158.66 83.06L166.28 80.3001L168.36 79.5701C168.599 79.4742 168.847 79.4005 169.1 79.35C168.88 79.4834 168.645 79.5908 168.4 79.67L166.4 80.49L158.84 83.4101C157.27 84.0801 155.35 84.4701 153.92 85.8201C153.15 86.524 152.542 87.3865 152.138 88.3481C151.734 89.3098 151.544 90.3476 151.58 91.3901C151.652 92.5179 151.941 93.6213 152.43 94.6401C152.887 95.7216 153.609 96.6708 154.53 97.4001C155.495 98.1679 156.641 98.6735 157.859 98.8679C159.077 99.0624 160.324 98.9391 161.48 98.5101C166.35 96.6601 171.08 94.97 175.24 93.33C176.597 92.6422 177.7 91.5417 178.392 90.1868C179.084 88.8319 179.328 87.2925 179.09 85.7901C178.925 84.9232 178.652 84.0801 178.28 83.28C177.956 82.5481 177.518 81.8728 176.98 81.28C176.49 80.7656 175.931 80.3214 175.32 79.96C174.328 79.3806 173.216 79.0384 172.07 78.96C171.081 78.947 170.097 79.0852 169.15 79.3701V79.3701Z" fill="#E0E0E0"/>
<path d="M680.91 411.01C680.91 411.15 528.47 411.27 340.47 411.27C152.47 411.27 0 411.15 0 411.01C0 410.87 152.41 410.75 340.47 410.75C528.53 410.75 680.91 410.87 680.91 411.01Z" fill="#263238"/>
<path d="M53.15 296.61C53.42 295.77 84.58 193.91 84.58 193.91L83.8 181.26L91.95 167.84L102.07 171.19L100.69 186.19L93.49 197.13L62.15 299.54L53.15 296.61Z" fill="#E0E0E0"/>
<path d="M53.15 296.61L53.75 296.78L55.48 297.32L62.15 299.41L62.04 299.47C67.11 282.86 78.83 244.42 93.27 197.09L100.46 186.16V186.27C100.9 181.48 101.37 176.39 101.84 171.27L102.02 171.54L101.18 171.27L91.9 168.2L92.2 168.09L84.05 181.51V181.36C84.31 185.673 84.5667 189.89 84.82 194.01V194.1C75.71 223.69 67.82 249.32 62.21 267.56C59.39 276.69 57.13 283.96 55.58 288.97C54.81 291.47 54.2 293.4 53.79 294.72L53.32 296.21L53.15 296.72C53.184 296.554 53.2274 296.391 53.28 296.23C53.38 295.88 53.52 295.39 53.71 294.76C54.11 293.44 54.71 291.52 55.43 289.04C56.94 284.04 59.14 276.76 61.9 267.64C67.48 249.34 75.3 223.64 84.34 193.95V194.04C84.08 189.92 83.8167 185.703 83.55 181.39V181.31V181.24L91.7 167.82L91.8 167.64L92 167.71L101.29 170.77L102.12 171.05L102.32 171.11V171.32C101.85 176.47 101.38 181.56 100.93 186.32V186.39V186.44L93.74 197.38V197.31C79.15 244.54 67.33 282.93 62.21 299.54V299.63H62.12L55.44 297.42L53.75 296.85L53.15 296.61Z" fill="#263238"/>
<path d="M45.6401 301.54L31.6401 320.46L12.0701 391.46C12.0701 391.46 9.26006 405.94 25.2501 410.05C43.2501 414.67 47.3501 400.91 47.3501 400.91L66.3501 331.58L66.1501 307.54L70.8401 302.25C71.0521 302.003 71.2009 301.709 71.2734 301.392C71.346 301.075 71.3401 300.745 71.2564 300.431C71.1727 300.116 71.0136 299.827 70.7929 299.588C70.5723 299.35 70.2967 299.168 69.9901 299.06L47.5101 291.64C47.1976 291.542 46.866 291.523 46.5443 291.583C46.2226 291.644 45.9206 291.782 45.6649 291.987C45.4092 292.191 45.2076 292.455 45.0777 292.755C44.9478 293.056 44.8937 293.384 44.9201 293.71L45.6401 301.54Z" fill="#E44C0D"/>
<path d="M66.2701 308.37C66.2201 308.51 61.51 307.14 55.75 305.31C49.99 303.48 45.34 301.88 45.39 301.74C45.44 301.6 50.1401 302.98 55.9101 304.81C61.6801 306.64 66.3101 308.23 66.2701 308.37Z" fill="#263238"/>
<path d="M66.3901 331.59C65.9162 331.56 65.4469 331.479 64.9901 331.35C64.0901 331.16 62.8101 330.85 61.2201 330.45C58.0401 329.66 53.6801 328.45 48.9301 326.93C44.1801 325.41 39.9301 323.87 36.8601 322.68C35.3401 322.08 34.1101 321.58 33.2701 321.22C32.8242 321.06 32.3955 320.855 31.9901 320.61C32.4561 320.705 32.9116 320.846 33.3501 321.03L36.9901 322.33C40.0701 323.43 44.3301 324.92 49.0801 326.43C53.8301 327.94 58.1701 329.21 61.3101 330.1L65.0401 331.15C65.5026 331.255 65.9545 331.402 66.3901 331.59V331.59Z" fill="#263238"/>
<g opacity="0.3">
<path opacity="0.3" d="M40.0706 327.997L39.581 327.854C37.8313 327.344 35.9993 328.349 35.489 330.098L18.1598 389.513C17.6495 391.262 18.6541 393.094 20.4038 393.605L20.8934 393.748C22.643 394.258 24.4751 393.253 24.9854 391.504L42.3146 332.089C42.8249 330.34 41.8202 328.508 40.0706 327.997Z" fill="black"/>
</g>
<g opacity="0.3">
<path opacity="0.3" d="M50.1029 331.24L49.6133 331.098C47.8637 330.587 46.0316 331.592 45.5213 333.342L28.1921 392.756C27.6818 394.506 28.6865 396.338 30.4361 396.848L30.9257 396.991C32.6754 397.501 34.5074 396.496 35.0177 394.747L52.3469 335.332C52.8572 333.583 51.8526 331.751 50.1029 331.24Z" fill="black"/>
</g>
<g opacity="0.3">
<path opacity="0.3" d="M59.1526 334.233L58.6635 334.089C56.916 333.571 55.0799 334.569 54.5626 336.316L36.9952 395.661C36.4779 397.408 37.4752 399.244 39.2228 399.762L39.7118 399.906C41.4594 400.424 43.2955 399.426 43.8128 397.679L61.3801 338.334C61.8974 336.587 60.9001 334.751 59.1526 334.233Z" fill="black"/>
</g>
<path d="M93.4201 197.14C91.8908 196.883 90.395 196.457 88.9601 195.87C87.4701 195.451 86.0338 194.86 84.6801 194.11C86.2046 194.373 87.6964 194.799 89.1301 195.38C90.6227 195.8 92.0621 196.391 93.4201 197.14Z" fill="#263238"/>
<path d="M102.09 171.19C102.015 171.666 101.898 172.135 101.74 172.59C101.45 173.59 101.07 174.85 100.6 176.41L96.6001 189.41L96.5201 189.66L96.2701 189.58L91.6601 187.97L86.9201 186.31L86.6901 186.23L86.7601 186C88.2001 180.86 89.4701 176.35 90.4101 173C90.8701 171.45 91.2401 170.17 91.5301 169.21C91.6476 168.745 91.8014 168.29 91.9901 167.85C91.9353 168.328 91.8383 168.799 91.7001 169.26L90.7001 173.09C89.8101 176.42 88.6101 180.94 87.2301 186.09L87.0701 185.78L91.8201 187.44L96.4201 189.05L96.0901 189.22L100.29 176.31C100.81 174.76 101.29 173.5 101.57 172.54C101.705 172.076 101.879 171.624 102.09 171.19V171.19Z" fill="#263238"/>
<path d="M397.05 69.46C396.243 69.4614 395.442 69.3261 394.68 69.06L382.43 64.82C381.228 64.3996 380.156 63.6716 379.323 62.7083C378.49 61.7451 377.923 60.5803 377.68 59.33L375.23 46.6C374.99 45.3483 375.083 44.0553 375.501 42.8511C375.919 41.6469 376.646 40.5739 377.61 39.74L387.41 31.26C388.375 30.4277 389.541 29.8631 390.792 29.6227C392.043 29.3823 393.336 29.4745 394.54 29.89L406.78 34.13C407.984 34.5489 409.057 35.2763 409.893 36.2397C410.728 37.203 411.296 38.3686 411.54 39.62L413.99 52.35C414.225 53.6017 414.129 54.8931 413.712 56.0964C413.295 57.2997 412.57 58.373 411.61 59.21L401.81 67.69C400.487 68.8322 398.798 69.4605 397.05 69.46ZM385.45 57.4L396.9 61.4L406.05 53.48L403.76 41.54L392.32 37.54L383.15 45.54L385.45 57.4Z" fill="#E0E0E0"/>
<path d="M385.45 57.3999C385.366 57.1411 385.3 56.8773 385.25 56.6099L384.75 54.2599C384.32 52.1499 383.75 49.1799 382.98 45.5499C382.972 45.5158 382.974 45.4803 382.985 45.4469C382.995 45.4136 383.014 45.3836 383.04 45.3599L392.16 37.3599C392.197 37.3406 392.238 37.3306 392.28 37.3306C392.322 37.3306 392.363 37.3406 392.4 37.3599L403.84 41.3599L404.02 41.5599V41.7299V41.9299L404.1 42.3199L404.25 43.0999C404.35 43.6099 404.44 44.0999 404.54 44.6399C404.74 45.6399 404.93 46.6399 405.12 47.6399C405.5 49.6399 405.87 51.5599 406.22 53.4099C406.228 53.4519 406.225 53.4954 406.211 53.5358C406.197 53.5763 406.173 53.6122 406.14 53.6399L397.02 61.5399C396.991 61.5566 396.958 61.5654 396.925 61.5654C396.892 61.5654 396.859 61.5566 396.83 61.5399L388.46 58.5399L386.21 57.6999C385.949 57.6151 385.695 57.5115 385.45 57.3899C385.735 57.4496 386.016 57.5298 386.29 57.6299L388.6 58.3699L396.96 61.1699H396.77L405.89 53.1699L405.81 53.4099C405.45 51.5499 405.07 49.6299 404.69 47.6399C404.5 46.6399 404.3 45.6399 404.1 44.6399C404 44.1299 403.91 43.6399 403.81 43.0999L403.66 42.3199L403.58 41.9299V41.7299V41.6299V41.5599C403.58 41.5599 403.9 41.9299 403.74 41.7499L392.31 37.7499H392.55L383.36 45.6399L383.43 45.4499C384.08 49.0699 384.62 52.0199 385 54.1299C385.17 55.1299 385.31 55.9199 385.41 56.5199C385.45 56.8114 385.464 57.106 385.45 57.3999V57.3999Z" fill="#263238"/>
<path d="M397.05 69.46C397.05 69.46 397.48 69.46 398.29 69.3C399.457 69.0777 400.553 68.573 401.48 67.83L411.43 59.12C412.519 58.1801 413.296 56.9317 413.66 55.54C413.856 54.8069 413.937 54.0479 413.9 53.29C413.811 52.4997 413.678 51.7152 413.5 50.94C412.87 47.71 412.2 44.27 411.5 40.65C411.376 39.7445 411.131 38.8598 410.77 38.02C410.381 37.1728 409.827 36.4117 409.14 35.7815C408.453 35.1513 407.647 34.6646 406.77 34.35L403.95 33.35L398.16 31.35L395.16 30.35C394.21 29.95 393.191 29.7362 392.16 29.72C391.124 29.7188 390.1 29.9441 389.16 30.38C388.247 30.8382 387.41 31.4353 386.68 32.15L382.05 36.15L377.58 40.02C376.219 41.2669 375.401 42.9971 375.3 44.84C375.286 45.7326 375.386 46.6233 375.6 47.49C375.77 48.38 375.93 49.25 376.1 50.11C376.42 51.83 376.74 53.49 377.04 55.11C377.34 56.73 377.63 58.29 377.94 59.75C378.313 61.1344 379.093 62.3748 380.18 63.31C380.685 63.7412 381.247 64.1012 381.85 64.38C382.44 64.64 383.07 64.83 383.65 65.05L387 66.23L392.36 68.13C393.469 68.5775 394.604 68.9549 395.76 69.26C396.56 69.41 397 69.4 397 69.42C396.582 69.4708 396.158 69.4708 395.74 69.42C394.57 69.1508 393.421 68.7999 392.3 68.37L386.96 66.54L383.6 65.4C383 65.19 382.39 65.01 381.76 64.74C381.122 64.4522 380.527 64.0787 379.99 63.63C378.836 62.6553 378.003 61.3554 377.6 59.9C377.26 58.38 376.99 56.84 376.67 55.23C376.35 53.62 376.03 51.95 375.67 50.23C375.497 49.3834 375.327 48.5134 375.16 47.62C374.934 46.7177 374.827 45.79 374.84 44.86C374.944 42.8855 375.816 41.0299 377.27 39.69L381.73 35.81L386.36 31.81C386.76 31.47 387.13 31.13 387.56 30.81C387.998 30.4844 388.467 30.203 388.96 29.97C389.956 29.5076 391.042 29.2686 392.14 29.27C393.229 29.2871 394.305 29.5111 395.31 29.93L398.31 30.93L404.1 32.93L406.92 33.93C407.872 34.2697 408.746 34.7968 409.49 35.48C410.22 36.1499 410.808 36.9592 411.22 37.86C411.598 38.7377 411.853 39.663 411.98 40.61C412.647 44.2434 413.297 47.6767 413.93 50.91C414.11 51.7044 414.24 52.5093 414.32 53.32C414.378 54.4712 414.169 55.6202 413.712 56.678C413.254 57.7358 412.559 58.674 411.68 59.42L401.62 68.01C400.651 68.7498 399.514 69.2377 398.31 69.43C397.893 69.4917 397.47 69.5017 397.05 69.46V69.46Z" fill="#263238"/>
<path d="M311.82 48.64C311.027 48.6381 310.245 48.4573 309.531 48.111C308.818 47.7647 308.192 47.2619 307.7 46.64L304.21 42.29C303.634 41.5669 303.257 40.7055 303.116 39.7915C302.976 38.8776 303.077 37.9428 303.41 37.08L305.41 31.88C305.747 31.0195 306.303 30.2625 307.025 29.685C307.746 29.1076 308.607 28.73 309.52 28.59L315.03 27.74C315.944 27.6017 316.878 27.7052 317.74 28.0403C318.601 28.3754 319.36 28.9304 319.94 29.65L323.43 34.01C324.006 34.7312 324.383 35.5909 324.524 36.5033C324.664 37.4157 324.563 38.349 324.23 39.21L322.23 44.42C321.899 45.2812 321.348 46.0407 320.632 46.6231C319.916 47.2055 319.061 47.5905 318.15 47.74L312.63 48.58C312.362 48.6205 312.091 48.6406 311.82 48.64V48.64ZM315.82 31.71H315.63L310.15 32.54C309.929 32.5729 309.72 32.6631 309.545 32.8017C309.369 32.9403 309.233 33.1225 309.15 33.33L307.15 38.54C307.071 38.747 307.047 38.971 307.08 39.1901C307.113 39.4092 307.203 39.616 307.34 39.79L310.83 44.14C310.97 44.3125 311.152 44.4455 311.359 44.5262C311.566 44.6068 311.79 44.6323 312.01 44.6L317.53 43.75C317.752 43.7181 317.961 43.6283 318.136 43.4895C318.312 43.3508 318.448 43.1681 318.53 42.96L320.53 37.76C320.611 37.5534 320.636 37.329 320.603 37.1095C320.57 36.89 320.479 36.6832 320.34 36.51L316.85 32.16C316.728 32.0169 316.576 31.9024 316.405 31.8247C316.234 31.7469 316.048 31.7077 315.86 31.71H315.82Z" fill="#E0E0E0"/>
<path d="M315.86 31.7099C316 31.6661 316.15 31.6661 316.29 31.7099C316.463 31.7569 316.624 31.8424 316.76 31.9599C316.93 32.1276 317.09 32.3045 317.24 32.4899L320.08 35.8999L320.54 36.4699C320.713 36.7052 320.811 36.9877 320.82 37.2799C320.814 37.5677 320.746 37.8508 320.62 38.1099C320.53 38.3599 320.43 38.6099 320.34 38.8699C319.94 39.8699 319.52 40.9999 319.08 42.1599C318.97 42.4499 318.86 42.7399 318.74 43.0399C318.609 43.4011 318.344 43.6982 318 43.8699C317.678 43.9898 317.342 44.0671 317 44.0999L316 44.2599C314.65 44.4599 313.33 44.6899 311.83 44.8799C311.615 44.8804 311.402 44.8353 311.205 44.7473C311.009 44.6594 310.833 44.5308 310.69 44.3699L310.03 43.5399L308.74 41.9399L307.51 40.3799L307.2 39.9999C307.081 39.8596 306.987 39.7008 306.92 39.5299C306.785 39.1757 306.785 38.784 306.92 38.4299L308.22 35.1599L308.81 33.6799C308.896 33.4279 309.01 33.1863 309.15 32.9599C309.31 32.7344 309.533 32.5607 309.79 32.4599C311.71 32.1099 313.17 31.9699 314.22 31.8299C314.757 31.7248 315.303 31.6778 315.85 31.6899C315.718 31.739 315.58 31.7725 315.44 31.7899L314.26 32.0299C313.26 32.2299 311.68 32.4499 309.93 32.7999C309.742 32.8824 309.58 33.0135 309.46 33.1799C309.348 33.388 309.254 33.6055 309.18 33.8299L308.62 35.3199L307.36 38.6099C307.269 38.8517 307.269 39.118 307.36 39.3599C307.499 39.6174 307.67 39.856 307.87 40.0699L309.15 41.6399L310.44 43.2399L311.09 44.0499C311.185 44.1547 311.3 44.2383 311.43 44.2952C311.559 44.3521 311.699 44.3809 311.84 44.3799L315.93 43.7699L316.93 43.6199C317.234 43.6009 317.533 43.5403 317.82 43.4399C318.057 43.3273 318.24 43.1262 318.33 42.8799C318.44 42.5799 318.56 42.2899 318.67 41.9999C319.13 40.8599 319.56 39.7599 319.97 38.7299C320.083 38.4832 320.183 38.2332 320.27 37.9799C320.379 37.7719 320.443 37.5439 320.46 37.3099C320.45 37.0967 320.385 36.8898 320.27 36.7099L319.83 36.1499L317.12 32.6399C317.001 32.3947 316.824 32.182 316.604 32.0201C316.385 31.8582 316.129 31.7517 315.86 31.7099V31.7099Z" fill="#263238"/>
<path d="M311.82 48.6399C312.037 48.5906 312.258 48.5572 312.48 48.5399L314.39 48.2099L317.39 47.6999C318.013 47.6319 318.625 47.484 319.21 47.2599C319.851 46.9953 320.43 46.6003 320.91 46.0999C321.461 45.5522 321.884 44.8898 322.15 44.1599C322.44 43.3999 322.75 42.5999 323.06 41.7699C323.61 40.0999 324.73 38.3899 324.32 36.4799C324.143 35.5114 323.699 34.6112 323.04 33.8799L321.04 31.3999L320.04 30.1199C319.721 29.6898 319.344 29.3061 318.92 28.9799C318.054 28.3308 317.002 27.9799 315.92 27.9799C315.363 28.0004 314.808 28.064 314.26 28.1699L312.59 28.4199L309.34 28.9299C308.343 29.1464 307.435 29.6628 306.74 30.4099C306.405 30.7682 306.122 31.1722 305.9 31.6099C305.69 32.0399 305.52 32.5399 305.34 32.9899L304.27 35.6999C303.897 36.517 303.603 37.3674 303.39 38.2399C303.272 39.0276 303.334 39.8319 303.571 40.5923C303.808 41.3526 304.215 42.0493 304.76 42.6299L307.27 45.8299C307.65 46.2899 307.96 46.7499 308.32 47.0999C308.646 47.4201 309.012 47.6959 309.41 47.9199C310.176 48.326 311.016 48.571 311.88 48.6399C311.88 48.6399 311.82 48.6399 311.7 48.6399C311.58 48.6399 311.42 48.6399 311.2 48.6399C310.544 48.5806 309.905 48.3937 309.32 48.0899C308.898 47.8657 308.505 47.5903 308.15 47.2699C307.758 46.8664 307.387 46.4425 307.04 45.9999L304.47 42.8499C303.882 42.2344 303.441 41.4933 303.181 40.6826C302.921 39.8719 302.849 39.0127 302.97 38.1699C303.171 37.2597 303.462 36.372 303.84 35.5199L304.89 32.8099C305.08 32.3399 305.23 31.8799 305.46 31.3899C305.699 30.9058 306.005 30.458 306.37 30.0599C307.117 29.256 308.084 28.6891 309.15 28.4299C310.25 28.2399 311.32 28.0899 312.43 27.9099L314.1 27.6599C314.673 27.545 315.255 27.4781 315.84 27.4599C317.032 27.4491 318.194 27.8284 319.15 28.5399C319.609 28.8907 320.017 29.3049 320.36 29.7699L321.36 31.0499C322.04 31.8899 322.7 32.7299 323.36 33.5399C324.073 34.3359 324.548 35.3167 324.73 36.3699C324.907 37.3802 324.796 38.4199 324.41 39.3699C324.07 40.2399 323.73 41.0899 323.41 41.9199C323.09 42.7499 322.77 43.5299 322.47 44.2999C322.19 45.0521 321.75 45.7344 321.18 46.2999C320.166 47.2752 318.835 47.8536 317.43 47.9299L314.43 48.3499C313.6 48.4599 312.95 48.5499 312.51 48.5799C312.283 48.6272 312.052 48.6474 311.82 48.6399V48.6399Z" fill="#263238"/>
<path d="M409.24 35.5898C408.536 36.8003 407.668 37.9075 406.66 38.8798C405.774 39.9745 404.709 40.9112 403.51 41.6498C404.353 40.5442 405.279 39.5045 406.28 38.5398C407.152 37.4478 408.145 36.4582 409.24 35.5898V35.5898Z" fill="#263238"/>
<path d="M390.49 29.8398C391.143 31.0158 391.593 32.2939 391.82 33.6198C392.225 34.9128 392.405 36.266 392.35 37.6198C391.902 36.3657 391.567 35.0738 391.35 33.7598C390.944 32.4824 390.656 31.1701 390.49 29.8398V29.8398Z" fill="#263238"/>
<path d="M383.03 45.3099C381.721 45.0524 380.437 44.6844 379.19 44.2099C377.892 43.8914 376.621 43.4701 375.39 42.95C378.079 43.1671 380.687 43.9727 383.03 45.3099V45.3099Z" fill="#263238"/>
<path d="M380.9 62.66C381.424 61.6143 382.098 60.6508 382.9 59.8C383.588 58.8474 384.41 57.9987 385.34 57.28C384.823 58.3297 384.149 59.2942 383.34 60.14C382.652 61.0926 381.83 61.9413 380.9 62.66V62.66Z" fill="#263238"/>
<path d="M397.74 68.1299C397.337 67.1005 397.101 66.0136 397.04 64.9099C396.799 63.8273 396.735 62.7129 396.85 61.6099C397.249 62.6439 397.485 63.7335 397.55 64.8399C397.785 65.9199 397.849 67.03 397.74 68.1299Z" fill="#263238"/>
<path d="M411.97 55.3199C410.945 55.2002 409.948 54.9095 409.02 54.4599C408.027 54.1755 407.09 53.7222 406.25 53.1199C408.266 53.529 410.199 54.2726 411.97 55.3199V55.3199Z" fill="#263238"/>
<path d="M610.49 132C617.26 123.84 624.03 115.6 629.31 106.4C634.59 97.2002 638.31 86.9202 638.58 76.3202C638.58 74.7102 637.93 63.5602 636.38 63.1102C635.28 62.7902 634.52 72.6402 633.62 73.3502C624.98 80.1102 619.37 90.1402 616.14 100.62C613.1 110.838 611.205 121.363 610.49 132" fill="#263238"/>
<path d="M522.3 194.02C525 187.02 538.3 152.02 538.23 152.02C538.16 152.02 515.32 140.1 523.23 115.82C527.03 104.09 536.82 80.5802 545.92 59.4002C550.644 48.4268 559.325 39.6336 570.237 34.7697C581.148 29.9058 593.491 29.3276 604.81 33.1502L607.14 33.9402C631.8 43.9402 637.14 70.4102 626.47 94.7802L577.47 208.28L534.53 195.01L522.3 194.02Z" fill="#FFBF9D"/>
<path d="M538.24 152.04C538.24 152.04 553.17 158.04 572.85 153.36C572.85 153.36 559.23 168.75 535.85 158.43L538.24 152.04Z" fill="#FF9A6C"/>
<path d="M545.88 82.7702C545.568 83.6673 545.618 84.6506 546.02 85.5114C546.421 86.3721 547.142 87.0425 548.03 87.3802C548.458 87.5628 548.917 87.6581 549.382 87.6607C549.847 87.6632 550.307 87.5729 550.737 87.395C551.166 87.217 551.556 86.9551 551.883 86.6246C552.209 86.2941 552.467 85.9016 552.64 85.4702C552.955 84.5732 552.906 83.5888 552.504 82.7273C552.102 81.8659 551.379 81.1957 550.49 80.8602C550.063 80.6762 549.603 80.5797 549.138 80.5765C548.673 80.5733 548.211 80.6634 547.782 80.8414C547.352 81.0195 546.962 81.2819 546.635 81.6132C546.309 81.9445 546.052 82.3379 545.88 82.7702V82.7702Z" fill="#263238"/>
<path d="M547.66 71.2002C547.94 71.8002 551.21 70.7402 554.92 72.0102C558.63 73.2802 560.73 76.0102 561.28 75.7302C561.55 75.6002 561.39 74.6402 560.49 73.3702C559.262 71.7138 557.55 70.4802 555.59 69.8402C553.65 69.1703 551.547 69.1422 549.59 69.7602C548.15 70.2502 547.52 70.9302 547.66 71.2002Z" fill="#263238"/>
<path d="M578.47 95.8802C578.156 96.7758 578.205 97.7589 578.607 98.6187C579.009 99.4785 579.731 100.147 580.62 100.48C581.047 100.664 581.507 100.761 581.972 100.764C582.438 100.767 582.899 100.677 583.328 100.499C583.758 100.321 584.148 100.058 584.475 99.7272C584.801 99.3959 585.058 99.0025 585.23 98.5702C585.542 97.6731 585.492 96.6898 585.09 95.829C584.689 94.9683 583.968 94.2979 583.08 93.9602C582.652 93.7779 582.192 93.683 581.726 93.6812C581.261 93.6793 580.8 93.7705 580.371 93.9494C579.941 94.1283 579.552 94.3913 579.225 94.7229C578.899 95.0544 578.642 95.4479 578.47 95.8802Z" fill="#263238"/>
<path d="M583.55 84.9901C583.82 85.5901 587.1 84.5401 590.81 85.8001C594.52 87.0601 596.61 89.8001 597.17 89.5301C597.43 89.3901 597.28 88.4301 596.38 87.1701C595.148 85.5112 593.433 84.2746 591.47 83.6301C589.531 82.9581 587.426 82.93 585.47 83.5501C584.07 84.0401 583.41 84.7201 583.55 84.9901Z" fill="#263238"/>
<path d="M560.58 109.04C560.67 108.84 558.49 107.66 554.91 105.92C554 105.5 553.16 105.01 553.22 104.3C553.28 103.59 553.97 102.65 554.8 101.71L560.05 95.4301C567.42 86.4301 573.1 78.9601 572.73 78.6601C572.36 78.3601 566.1 85.4001 558.73 94.3701C556.94 96.5901 555.22 98.7001 553.59 100.73C552.87 101.73 551.84 102.73 551.84 104.29C551.866 104.67 551.978 105.039 552.167 105.37C552.355 105.7 552.616 105.984 552.93 106.2C553.41 106.518 553.927 106.777 554.47 106.97C558.15 108.44 560.49 109.25 560.58 109.04Z" fill="#263238"/>
<path d="M570.65 115.3C570.05 115.07 568.65 119.1 564.27 120.79C559.89 122.48 555.7 120.6 555.48 121.15C555.34 121.38 556.18 122.25 557.97 122.92C560.324 123.746 562.893 123.721 565.23 122.85C567.47 122.004 569.294 120.323 570.32 118.16C571.04 116.54 570.93 115.37 570.65 115.3Z" fill="#263238"/>
<path d="M588.84 69.9902C588.84 71.1202 592.74 71.9002 596.92 73.8902C601.1 75.8802 604.23 78.2702 605.11 77.5602C605.51 77.2102 605.22 76.0502 604.11 74.5602C602.621 72.7183 600.73 71.241 598.583 70.241C596.436 69.241 594.088 68.7448 591.72 68.7902C589.92 68.9302 588.85 69.4602 588.84 69.9902Z" fill="#263238"/>
<path d="M553.37 59.37C553.74 60.44 556.59 60.37 559.68 61.37C562.77 62.37 565.18 63.86 566.07 63.18C566.48 62.84 566.36 61.86 565.49 60.67C564.282 59.1969 562.665 58.1152 560.842 57.5616C559.019 57.008 557.073 57.0075 555.25 57.56C553.87 58.11 553.22 58.86 553.37 59.37Z" fill="#263238"/>
<path d="M618.41 112.04C618.89 112.04 636.68 112.73 630.58 129.04C624.48 145.35 609.31 135.89 609.46 135.41C609.61 134.93 618.41 112.04 618.41 112.04Z" fill="#FFBF9D"/>
<path d="M616.77 131.12C616.86 131.12 616.98 131.43 617.38 131.83C617.946 132.376 618.704 132.677 619.49 132.67C621.49 132.67 623.93 130.48 625.11 127.56C625.679 126.173 625.928 124.676 625.84 123.18C625.882 122.609 625.783 122.037 625.551 121.513C625.319 120.99 624.961 120.532 624.51 120.18C624.214 119.962 623.849 119.857 623.482 119.885C623.115 119.912 622.771 120.07 622.51 120.33C622.12 120.71 622.1 121.07 622.01 121.07C621.92 121.07 621.76 120.66 622.14 120.07C622.378 119.705 622.729 119.427 623.14 119.28C623.717 119.109 624.337 119.17 624.87 119.45C625.486 119.839 625.992 120.378 626.342 121.016C626.692 121.655 626.874 122.372 626.87 123.1C627.032 124.777 626.785 126.469 626.15 128.03C624.81 131.28 621.98 133.74 619.36 133.54C618.873 133.501 618.4 133.355 617.976 133.111C617.553 132.867 617.188 132.532 616.91 132.13C616.65 131.54 616.7 131.13 616.77 131.12Z" fill="#FF9A6C"/>
<path d="M566.79 36.4701C564.71 34.0101 575.9 28.4701 583.51 28.0501C595.01 27.3701 611.02 30.3701 619.06 36.4001C628.76 43.6501 635.71 52.5301 637.37 64.5201C639.03 76.5101 636.66 88.8301 632.01 100.01C630.59 103.42 628.85 106.87 625.89 109.08C622.24 111.81 617 112.4 615.28 117.45C614.995 118.372 614.531 119.229 613.913 119.971C613.295 120.712 612.536 121.324 611.68 121.77C607.48 123.77 604.98 119.42 604.45 115.77C603.32 108.01 605.84 100.24 608.33 92.7701C610.1 87.4901 611.93 82.1001 615.33 77.6701C617.17 75.2601 619.43 73.1901 621.14 70.6701C622.85 68.1501 623.96 65.0001 623.14 62.0901C622.931 61.4484 622.66 60.8287 622.33 60.2401C620.819 57.3866 618.575 54.9863 615.831 53.2853C613.086 51.5843 609.938 50.6437 606.71 50.5601C596.28 50.2901 578.71 49.1201 575.86 44.4401C571.69 37.7001 571.4 34.2401 571.4 34.2401L566.79 36.4701Z" fill="#263238"/>
<path d="M621.15 26.4201C622.2 26.9501 646.77 42.1301 646.61 64.2701C646.45 86.4101 642.4 91.8301 642.4 91.8301C643.224 92.845 643.898 93.9733 644.4 95.1801C645.06 96.8601 641.29 102.56 638.06 100.66C616 80.1901 585.6 68.4301 550.92 57.6601L524.76 48.2901C517.1 46.6201 515.19 43.7701 518.93 43.0001C521.8 42.4001 545.56 41.2001 545.56 41.2001L550.69 39.6201L566.69 28.3101C566.69 28.3101 566.07 25.7501 569.32 24.9201C572.57 24.0901 600.49 15.9201 621.15 26.4201Z" fill="#E44C0D"/>
<path d="M550.67 39.6602C550.67 39.6602 551.02 39.8002 551.67 40.0202L554.67 40.9602C557.25 41.7302 560.92 43.0302 565.44 44.6902C577.135 49.1912 588.415 54.7055 599.15 61.1702C609.879 67.6618 620.229 74.76 630.15 82.4302C633.99 85.3402 637.04 87.7602 639.15 89.4302L641.6 91.3402C642.16 91.7702 642.47 91.9802 642.47 91.9802C642.47 91.9802 642.2 91.7202 641.65 91.2602L639.26 89.2602C637.17 87.5602 634.14 85.1002 630.33 82.1602C620.444 74.3997 610.091 67.2529 599.33 60.7602C588.562 54.2715 577.221 48.7851 565.45 44.3702C560.605 42.5537 555.672 40.9817 550.67 39.6602Z" fill="#263238"/>
<g opacity="0.3">
<path opacity="0.3" d="M641.49 46.54C641.49 46.54 614.37 32.02 599.39 33.78L601.15 33.54L587.15 34.7C584.78 34.9 582.07 34.97 580.45 33.24C580.45 33.24 588.94 29.64 602.35 29.71C615.76 29.78 635.44 34.54 641.49 46.54Z" fill="black"/>
</g>
<path d="M641.85 46.7801C641.248 45.8748 640.58 45.0158 639.85 44.2101C637.897 41.9796 635.688 39.986 633.27 38.2701C629.69 35.7055 625.751 33.6837 621.58 32.2701C616.497 30.3981 611.071 29.6443 605.67 30.0601C602.897 30.3395 600.145 30.7937 597.43 31.4201C594.81 32.0101 592.26 32.4201 589.85 33.1201C587.641 33.8531 585.372 34.3951 583.07 34.7401C581.056 34.9392 579.022 34.6688 577.13 33.9501C570.04 31.6201 566.21 28.6701 566.69 28.3401C566.716 28.6274 566.848 28.8948 567.06 29.0901C567.636 29.6529 568.281 30.1402 568.98 30.5401C571.525 32.0635 574.228 33.3074 577.04 34.2501C578.974 34.9979 581.054 35.2921 583.12 35.1101C585.448 34.7848 587.743 34.2595 589.98 33.5401C592.34 32.8901 594.92 32.4501 597.54 31.8601C600.238 31.2593 602.97 30.8185 605.72 30.5401C611.056 30.1385 616.417 30.8712 621.45 32.6901C625.589 34.075 629.509 36.0449 633.09 38.5401C635.506 40.2213 637.729 42.1629 639.72 44.3301C640.43 45.1001 640.96 45.7201 641.3 46.1501C641.64 46.5801 641.85 46.7801 641.85 46.7801Z" fill="#E44C0D"/>
<g opacity="0.3">
<path opacity="0.3" d="M646.29 73.4201C641.15 71.6101 637.71 68.9401 632.98 66.0601C627.98 63.0001 622.87 60.2001 617.98 56.9001C614.27 54.4001 609.78 51.7601 608.13 47.9001C607.583 48.8366 607.287 49.8987 607.271 50.9833C607.255 52.0679 607.52 53.1382 608.04 54.0901C609.09 56.0901 613.54 59.6601 615.44 60.9501C626.25 68.3001 633.76 73.3201 645.84 78.4301C646.097 76.7751 646.244 75.1047 646.28 73.4301" fill="black"/>
</g>
<path d="M646.55 61.8202C649.33 64.3502 651 65.9902 650.14 68.8202C649.43 71.1602 647.99 73.8202 645.57 73.4502C644.854 73.2839 644.176 72.9855 643.57 72.5702L610.45 53.1802C609.251 52.6549 608.279 51.7187 607.71 50.5402C607.05 48.6602 608.71 46.6002 610.62 46.0802C612.53 45.5602 614.57 46.0802 616.47 46.7402C627.25 50.2302 637.08 55.5902 646.55 61.8102" fill="#FDEEE7"/>
<path d="M608.07 51.2601C607.765 50.682 607.62 50.033 607.65 49.3801C607.724 48.499 608.045 47.6565 608.575 46.9492C609.106 46.2418 609.825 45.698 610.65 45.3801C612.77 44.6601 615.58 45.1401 618.34 46.2601C621.1 47.3801 624.21 48.6501 627.34 50.1001C632.777 52.5114 637.987 55.4028 642.91 58.7401C644.79 60.0301 646.24 61.1701 647.25 61.9601L648.39 62.8901C648.519 63.0048 648.66 63.1054 648.81 63.1901C648.81 63.1901 648.7 63.0501 648.45 62.8201L647.36 61.8201C646.36 60.9901 644.97 59.8201 643.1 58.4701C638.21 55.0387 632.995 52.0946 627.53 49.6801C624.35 48.2201 621.28 46.9601 618.46 45.8501C615.64 44.7401 612.75 44.2601 610.46 45.0701C609.592 45.4163 608.842 46.0048 608.3 46.7655C607.757 47.5262 607.445 48.4268 607.4 49.3601C607.387 49.8612 607.493 50.3582 607.71 50.8101C607.803 50.9799 607.925 51.1322 608.07 51.2601V51.2601Z" fill="#FDF6F3"/>
<path d="M561.66 31.9001L584.18 39.1101L580.13 44.7601L556 35.9001L561.66 31.9001Z" fill="white"/>
<path d="M588.67 63.3502C588.72 63.2302 579.25 58.3502 567.5 52.5302C555.75 46.7102 546.15 42.0002 546.15 42.1202C546.15 42.2402 555.57 47.1202 567.32 52.9402C579.07 58.7602 588.61 63.4602 588.67 63.3502Z" fill="#263238"/>
<path d="M594.34 184.67L594.64 169.89L544.06 188.68C544.06 188.68 534.71 158.31 534.71 156.88L523.5 163.88L504.87 155.88L486.24 146.68L448.56 212.68L409.03 329.22L502.15 391.34L571.21 317.34L613.21 253.34L636.29 212.82L594.34 184.67Z" fill="#E44C0D"/>
<path d="M539.56 188.46C539.501 187.969 539.477 187.474 539.49 186.98C539.49 185.98 539.49 184.56 539.43 182.84L539.66 182.98C534.102 185.695 528.97 189.209 524.43 193.41L524.03 193.79V193.24C524.03 192.58 523.95 191.88 523.91 191.17C523.5 183.92 523.16 177.36 522.91 172.6C522.81 170.28 522.73 168.38 522.67 166.97C522.67 166.357 522.67 165.847 522.67 165.44C522.604 165.428 522.545 165.391 522.504 165.337C522.464 165.284 522.445 165.217 522.451 165.15C522.457 165.083 522.488 165.02 522.538 164.975C522.588 164.93 522.653 164.905 522.72 164.905C522.787 164.905 522.852 164.93 522.902 164.975C522.952 165.02 522.983 165.083 522.989 165.15C522.995 165.217 522.976 165.284 522.936 165.337C522.895 165.391 522.836 165.428 522.77 165.44C522.77 165.84 522.85 166.35 522.91 166.96C523.01 168.37 523.14 170.27 523.3 172.58C523.62 177.33 524.01 183.89 524.42 191.14C524.42 191.85 524.5 192.55 524.53 193.21L524.1 193.03C528.676 188.799 533.886 185.311 539.54 182.69L539.78 182.59V182.84C539.78 184.56 539.71 185.95 539.69 186.98C539.683 187.476 539.64 187.971 539.56 188.46Z" fill="#263238"/>
<path d="M589.68 185.38C589.499 185.506 589.305 185.61 589.1 185.69L587.41 186.5L581.15 189.37L560.39 198.65L550.53 203.01L550.11 203.19L550.19 202.74C551.004 198.052 551.386 193.298 551.33 188.54L551.56 188.68L546.89 190.95L545.64 191.53C545.36 191.66 545.21 191.72 545.2 191.7C545.322 191.6 545.457 191.516 545.6 191.45L546.81 190.79L551.42 188.39L551.64 188.27V188.54C551.781 193.338 551.446 198.138 550.64 202.87L550.3 202.6L560.15 198.22L580.97 189.07L587.31 186.35L589.04 185.64C589.242 185.528 589.457 185.44 589.68 185.38V185.38Z" fill="#263238"/>
<path d="M501.25 111.43H120.35C112.303 111.43 105.78 117.953 105.78 126V389.74C105.78 397.787 112.303 404.31 120.35 404.31H501.25C509.297 404.31 515.82 397.787 515.82 389.74V126C515.82 117.953 509.297 111.43 501.25 111.43Z" fill="#3C3C3C"/>
<path d="M89.75 385.39H534V393.22C533.995 397.938 532.117 402.46 528.779 405.794C525.442 409.128 520.917 411 516.2 411H107.55C102.829 411 98.3016 409.125 94.9635 405.787C91.6254 402.448 89.75 397.921 89.75 393.2V385.37V385.39Z" fill="#3C3C3C"/>
<path d="M503.66 123.06H116.78V370.39H503.66V123.06Z" fill="#263238"/>
<path d="M270.38 382.64L275.89 392.11H353.46L358.58 382.64H270.38Z" fill="#CECECE"/>
<path d="M493.22 131.44H128.02C126.214 131.44 124.75 132.904 124.75 134.71V366.33C124.75 368.136 126.214 369.6 128.02 369.6H493.22C495.026 369.6 496.49 368.136 496.49 366.33V134.71C496.49 132.904 495.026 131.44 493.22 131.44Z" fill="#EBEBEB"/>
<path d="M496.09 369.95H124.35L124.75 149.24H496.09V369.95Z" fill="#FAFAFA"/>
<path d="M155.99 140.63C155.961 141.228 155.757 141.804 155.403 142.287C155.049 142.771 154.562 143.139 154.001 143.348C153.44 143.557 152.83 143.596 152.246 143.462C151.663 143.328 151.132 143.025 150.719 142.592C150.306 142.158 150.029 141.613 149.922 141.024C149.816 140.435 149.885 139.828 150.12 139.277C150.355 138.727 150.747 138.257 151.247 137.927C151.746 137.597 152.331 137.421 152.93 137.42C153.761 137.441 154.55 137.791 155.124 138.393C155.697 138.994 156.009 139.799 155.99 140.63V140.63Z" fill="#263238"/>
<path d="M137.43 140.63C137.401 141.228 137.197 141.804 136.843 142.287C136.489 142.771 136.002 143.139 135.441 143.348C134.88 143.557 134.27 143.596 133.686 143.462C133.103 143.328 132.572 143.025 132.159 142.592C131.746 142.158 131.469 141.613 131.362 141.024C131.256 140.435 131.325 139.828 131.56 139.277C131.796 138.727 132.187 138.257 132.687 137.927C133.186 137.597 133.771 137.421 134.37 137.42C135.201 137.441 135.99 137.791 136.564 138.393C137.137 138.994 137.449 139.799 137.43 140.63V140.63Z" fill="#263238"/>
<path d="M146.97 140.63C146.941 141.228 146.737 141.804 146.383 142.287C146.029 142.771 145.542 143.139 144.981 143.348C144.42 143.557 143.81 143.596 143.226 143.462C142.643 143.328 142.112 143.025 141.699 142.592C141.286 142.158 141.009 141.613 140.902 141.024C140.796 140.435 140.865 139.828 141.1 139.277C141.335 138.727 141.727 138.257 142.227 137.927C142.726 137.597 143.311 137.421 143.91 137.42C144.741 137.441 145.53 137.791 146.104 138.393C146.677 138.994 146.989 139.799 146.97 140.63V140.63Z" fill="#263238"/>
<path d="M512.3 382.64C512.3 382.8 421.3 382.92 309.05 382.92C196.8 382.92 105.78 382.8 105.78 382.64C105.78 382.48 196.78 382.35 309.05 382.35C421.32 382.35 512.3 382.48 512.3 382.64Z" fill="#263238"/>
<path d="M270.69 191.54C276.734 187.892 283.238 185.067 290.03 183.14L294.03 163.99L326.37 163.42L331.03 182.42C337.883 184.112 344.481 186.709 350.65 190.14L367 179.43L390.27 201.9L380.15 218.63C383.8 224.677 386.625 231.185 388.55 237.98L407.69 241.98L408.26 274.32L389.26 278.98C387.564 285.815 384.964 292.393 381.53 298.54L392.25 314.89L369.78 338.16L353.07 328.03C347.023 331.68 340.516 334.505 333.72 336.43L329.72 355.58L297.37 356.14L292.72 337.14C285.884 335.466 279.303 332.886 273.15 329.47L256.8 340.19L233.53 317.72L243.66 301.01C240.007 294.964 237.178 288.456 235.25 281.66L216.11 277.66L215.54 245.32L234.54 240.66C236.23 233.806 238.827 227.208 242.26 221.04L231.55 204.69L254.02 181.42L270.69 191.54ZM287.93 234.63C283.163 239.568 279.968 245.807 278.748 252.561C277.528 259.314 278.337 266.278 281.075 272.571C283.812 278.864 288.354 284.205 294.126 287.917C299.898 291.629 306.641 293.546 313.503 293.426C320.365 293.305 327.037 291.153 332.675 287.241C338.314 283.329 342.666 277.833 345.181 271.448C347.696 265.062 348.261 258.075 346.805 251.368C345.349 244.662 341.937 238.538 337 233.77C333.72 230.606 329.848 228.119 325.607 226.452C321.366 224.784 316.837 223.968 312.281 224.051C307.724 224.134 303.228 225.113 299.05 226.933C294.872 228.754 291.093 231.379 287.93 234.66V234.63Z" fill="#E0E0E0"/>
<path d="M399.9 203.91C400.343 201.518 401.1 199.195 402.15 197L398.15 191.6L405.39 183.12L411.39 186.26C413.391 184.881 415.567 183.775 417.86 182.97L418.86 176.3L429.97 175.43L431.97 181.86C434.364 182.302 436.688 183.062 438.88 184.12L444.28 180.12L452.76 187.37L449.62 193.37C451.004 195.373 452.114 197.553 452.92 199.85L459.58 200.85L460.45 211.97L454.02 213.97C453.581 216.365 452.821 218.689 451.76 220.88L455.76 226.29L448.52 234.76L442.52 231.62C440.517 233.004 438.338 234.114 436.04 234.92L435.04 241.59L423.93 242.46L421.93 236.02C419.537 235.582 417.213 234.825 415.02 233.77L409.61 237.77L401.15 230.44L404.29 224.44C402.908 222.436 401.798 220.257 400.99 217.96L394.33 216.96L393.46 205.84L399.89 203.84L399.9 203.91ZM414.97 207.28C414.733 209.781 415.286 212.293 416.552 214.463C417.819 216.632 419.734 218.35 422.028 219.373C424.322 220.396 426.88 220.674 429.34 220.167C431.8 219.659 434.039 218.392 435.742 216.545C437.444 214.698 438.523 212.362 438.828 209.869C439.132 207.375 438.647 204.849 437.439 202.646C436.232 200.443 434.364 198.675 432.098 197.59C429.832 196.506 427.283 196.159 424.81 196.6C422.228 197.061 419.868 198.354 418.091 200.283C416.314 202.211 415.218 204.669 414.97 207.28V207.28Z" fill="#E0E0E0"/>
<path d="M156.37 315.54C156.451 312.667 156.918 309.818 157.76 307.07L152.09 301.54L159.03 290.36L166.55 292.96C168.65 290.989 171.004 289.308 173.55 287.96L173.49 280.01L186.31 277.01L189.78 284.16C192.653 284.24 195.502 284.708 198.25 285.55L203.84 279.88L215.02 286.82L212.42 294.34C214.391 296.44 216.072 298.794 217.42 301.34L225.37 301.28L228.37 314.09L221.21 317.54C221.121 320.413 220.65 323.261 219.81 326.01L225.48 331.59L218.54 342.78L211.02 340.18C208.921 342.153 206.567 343.835 204.02 345.18L204.08 353.13L191.27 356.13L187.79 348.98C184.925 348.88 182.086 348.396 179.35 347.54L173.77 353.21L162.58 346.27L165.18 338.75C163.209 336.65 161.527 334.296 160.18 331.75L152.18 331.81L149.18 319L156.33 315.52L156.37 315.54ZM174.9 319.14C175.542 321.856 176.975 324.321 179.018 326.223C181.06 328.125 183.62 329.379 186.375 329.827C189.13 330.275 191.956 329.896 194.495 328.739C197.035 327.582 199.175 325.698 200.645 323.325C202.114 320.953 202.848 318.198 202.753 315.408C202.657 312.619 201.738 309.92 200.11 307.654C198.482 305.387 196.218 303.653 193.606 302.672C190.993 301.69 188.148 301.505 185.43 302.14C183.618 302.562 181.907 303.338 180.396 304.424C178.885 305.51 177.603 306.883 176.624 308.466C175.646 310.048 174.99 311.809 174.694 313.646C174.398 315.483 174.468 317.36 174.9 319.17V319.14Z" fill="#E0E0E0"/>
<path d="M179.38 208.72C179.707 206.914 180.279 205.161 181.08 203.51L178.08 199.43L183.54 193.04L188.04 195.41C189.55 194.368 191.191 193.531 192.92 192.92L193.66 187.92L202.04 187.26L203.54 192.11C205.344 192.446 207.095 193.017 208.75 193.81L212.83 190.81L219.21 196.27L216.85 200.77C217.892 202.278 218.727 203.919 219.33 205.65L224.33 206.38L224.99 214.76L220.15 216.22C219.819 218.024 219.251 219.776 218.46 221.43L221.46 225.5L216 231.89L211.5 229.52C209.993 230.566 208.351 231.403 206.62 232.01L205.89 237.01L197.51 237.66L196 232.81C194.194 232.482 192.442 231.91 190.79 231.11L186.72 234.11L180.33 228.65L182.69 224.15C181.648 222.642 180.813 221.001 180.21 219.27L175.21 218.53L174.56 210.15L179.41 208.65L179.38 208.72ZM190.73 212.79C190.871 214.563 191.535 216.254 192.637 217.65C193.739 219.046 195.23 220.085 196.921 220.634C198.613 221.183 200.429 221.219 202.141 220.737C203.853 220.255 205.384 219.276 206.54 217.925C207.696 216.573 208.426 214.91 208.638 213.144C208.849 211.378 208.532 209.589 207.728 208.003C206.923 206.416 205.667 205.104 204.117 204.232C202.567 203.359 200.793 202.965 199.02 203.1C197.839 203.19 196.687 203.512 195.63 204.048C194.573 204.584 193.633 205.323 192.863 206.223C192.092 207.124 191.508 208.167 191.142 209.294C190.776 210.421 190.636 211.609 190.73 212.79V212.79Z" fill="#EBEBEB"/>
<path d="M400.32 298.97C400.609 297.42 401.1 295.914 401.78 294.49L399.17 290.99L403.86 285.5L407.73 287.5C409.025 286.603 410.434 285.883 411.92 285.36L412.55 281.04L419.75 280.48L421.04 284.65C422.592 284.935 424.098 285.426 425.52 286.11L429.02 283.5L434.51 288.19L432.51 292.05C433.407 293.348 434.127 294.761 434.65 296.25L438.97 296.88L439.53 304.08L435.36 305.37C435.075 306.922 434.584 308.429 433.9 309.85L436.51 313.35L431.82 318.83L427.96 316.83C426.659 317.724 425.247 318.443 423.76 318.97L423.13 323.28L415.93 323.84L414.64 319.68C413.089 319.391 411.583 318.9 410.16 318.22L406.66 320.83L401.15 316.14L403.15 312.28C402.253 310.985 401.533 309.576 401.01 308.09L396.7 307.46L396.13 300.26L400.3 298.97H400.32ZM410.07 302.46C410.188 303.991 410.758 305.451 411.708 306.657C412.657 307.863 413.944 308.76 415.403 309.234C416.863 309.708 418.431 309.738 419.908 309.32C421.385 308.902 422.704 308.055 423.699 306.886C424.694 305.717 425.319 304.279 425.496 302.754C425.672 301.229 425.392 299.686 424.69 298.321C423.989 296.956 422.898 295.83 421.555 295.085C420.213 294.341 418.68 294.012 417.15 294.14C415.109 294.309 413.219 295.279 411.892 296.838C410.565 298.397 409.91 300.419 410.07 302.46Z" fill="#EBEBEB"/>
<path d="M311.88 309.82H262.15C259.227 309.813 256.357 309.038 253.827 307.574C251.297 306.11 249.196 304.008 247.733 301.477C246.27 298.946 245.497 296.076 245.491 293.153C245.486 290.23 246.247 287.357 247.7 284.82L272.58 241.73L297.45 198.64C298.917 196.105 301.024 194 303.562 192.537C306.099 191.074 308.976 190.303 311.905 190.303C314.834 190.303 317.711 191.074 320.248 192.537C322.786 194 324.893 196.105 326.36 198.64L351.24 241.73L376.12 284.82C377.573 287.357 378.335 290.232 378.329 293.155C378.322 296.079 377.549 298.95 376.085 301.481C374.621 304.012 372.518 306.115 369.987 307.578C367.455 309.041 364.584 309.815 361.66 309.82H311.88Z" fill="#E44C0D"/>
<path d="M365.44 289.76C365.44 289.76 365.57 290.01 365.82 290.53C366.247 291.572 366.41 292.703 366.295 293.823C366.18 294.943 365.79 296.017 365.16 296.95C364.665 297.687 364.03 298.319 363.29 298.81C362.43 299.358 361.447 299.681 360.43 299.75C351.95 299.84 339.71 299.82 324.57 299.86L271.39 299.92H263.79C262.434 299.906 261.117 299.471 260.019 298.675C258.921 297.88 258.097 296.764 257.66 295.48C257.196 294.198 257.11 292.81 257.41 291.48C257.49 291.15 257.6 290.82 257.71 290.48C257.82 290.14 258 289.85 258.15 289.55L259.15 287.8C260.43 285.45 261.73 283.09 263.03 280.7L279.15 251.11L295.37 221.54C297.977 216.76 300.543 212.07 303.07 207.47C303.71 206.33 304.3 205.18 304.98 204.05C305.656 202.896 306.621 201.938 307.78 201.27C308.916 200.619 310.191 200.249 311.499 200.19C312.807 200.131 314.11 200.385 315.3 200.93C316.481 201.464 317.511 202.282 318.3 203.31C318.983 204.348 319.601 205.426 320.15 206.54C321.32 208.68 322.48 210.79 323.61 212.87C325.89 217.03 328.093 221.067 330.22 224.98C334.49 232.79 338.46 240.07 342.08 246.71C349.32 260 355.17 270.76 359.22 278.21L363.86 286.78C364.38 287.78 364.78 288.5 365.05 289.02C365.32 289.54 365.45 289.79 365.45 289.79C365.45 289.79 365.29 289.54 365.01 289.04L363.77 286.83L359.04 278.3C354.96 270.87 349.04 260.15 341.76 246.89L329.85 225.18L323.21 213.09C322.07 211.01 320.92 208.9 319.74 206.76C319.19 205.68 318.579 204.632 317.91 203.62C317.172 202.66 316.211 201.895 315.11 201.39C313.99 200.876 312.763 200.637 311.531 200.692C310.3 200.748 309.099 201.097 308.03 201.71C306.946 202.344 306.044 203.246 305.41 204.33C304.75 205.42 304.15 206.59 303.52 207.73L295.82 221.8C290.6 231.36 285.18 241.25 279.64 251.39L263.45 280.96C262.14 283.35 260.85 285.72 259.56 288.06C258.857 289.163 258.302 290.353 257.91 291.6C257.625 292.846 257.704 294.148 258.14 295.35C258.535 296.541 259.294 297.578 260.309 298.315C261.324 299.053 262.545 299.453 263.8 299.46H271.4L324.58 299.51L360.43 299.56C361.412 299.503 362.365 299.2 363.2 298.68C363.929 298.207 364.557 297.596 365.05 296.88C365.82 295.748 366.231 294.41 366.23 293.04C366.218 291.901 365.948 290.78 365.44 289.76Z" fill="#263238"/>
<path d="M303.82 280.54C303.82 276.13 307.34 272.84 312.35 272.84C317.36 272.84 320.8 276.13 320.8 280.54C320.8 284.95 317.36 288.39 312.35 288.39C307.34 288.39 303.82 284.89 303.82 280.54ZM303.9 235.37H320.8L317.96 268.65H306.67L303.9 235.37Z" fill="white"/>
<path d="M314.26 193.66C313.237 193.315 312.176 193.093 311.1 193C308.485 192.944 305.933 193.8 303.88 195.42C301.876 197.091 300.262 199.18 299.15 201.54C298.24 203.34 297.81 204.54 297.73 204.49C297.757 204.195 297.828 203.905 297.94 203.63C298.19 202.864 298.484 202.113 298.82 201.38C299.877 198.903 301.513 196.715 303.59 195C305.73 193.302 308.424 192.461 311.15 192.64C311.967 192.701 312.767 192.897 313.52 193.22C314.01 193.45 314.28 193.63 314.26 193.66Z" fill="white"/>
<path d="M293.46 211.94C293.665 211.077 294.036 210.263 294.55 209.54C295.28 208.31 295.97 207.37 296.1 207.44C295.889 208.29 295.515 209.092 295 209.8C294.629 210.606 294.106 211.333 293.46 211.94Z" fill="white"/>
<g opacity="0.3">
<path opacity="0.3" d="M336.83 216.8L259.35 264.55L249.29 281.98L342.3 226.28L336.83 216.8Z" fill="white"/>
</g>
<g opacity="0.3">
<path opacity="0.3" d="M349.04 237.96L246.33 298.54C246.742 300.128 247.504 301.605 248.56 302.86L350.85 241.1L349.04 237.96Z" fill="white"/>
</g>
<path d="M602.87 350.94C598.965 346.637 593.905 343.549 588.292 342.045C582.68 340.542 576.753 340.686 571.22 342.46L561.65 331.96L560.32 330.47L484.59 247.38C486.718 242.448 487.495 237.038 486.841 231.707C486.186 226.375 484.124 221.314 480.865 217.044C477.607 212.773 473.27 209.448 468.301 207.408C463.332 205.369 457.909 204.69 452.59 205.44L448.89 206.91L461.76 215.54L461.07 229.59L450.66 239.04L436.61 238.35L427.43 228.23L423.64 229.72C422.55 238.19 428.23 248.87 434.42 255.72C438.318 260.017 443.369 263.103 448.973 264.608C454.576 266.113 460.493 265.975 466.02 264.21L543.02 348.69L545.38 351.32L552.68 359.32C550.397 364.642 549.691 370.509 550.646 376.221C551.602 381.933 554.179 387.251 558.07 391.54C564.23 398.34 572.41 402.88 580.92 402.65L584.72 401.17L575.53 391.04L576.22 377.04L586.63 367.59L600.63 368.27L606.01 379.88L609.81 378.39C610.982 373.596 610.962 368.587 609.752 363.802C608.543 359.017 606.18 354.601 602.87 350.94Z" fill="#E0E0E0"/>
<g opacity="0.3">
<path opacity="0.3" d="M602.87 350.94C598.965 346.637 593.905 343.549 588.292 342.045C582.68 340.542 576.753 340.686 571.22 342.46L561.65 331.96L560.32 330.47L484.59 247.38C486.718 242.448 487.495 237.038 486.841 231.707C486.186 226.375 484.124 221.314 480.865 217.044C477.607 212.773 473.27 209.448 468.301 207.408C463.332 205.369 457.909 204.69 452.59 205.44L448.89 206.91L461.76 215.54L461.07 229.59L450.66 239.04L436.61 238.35L427.43 228.23L423.64 229.72C422.55 238.19 428.23 248.87 434.42 255.72C438.318 260.017 443.369 263.103 448.973 264.608C454.576 266.113 460.493 265.975 466.02 264.21L543.02 348.69L545.38 351.32L552.68 359.32C550.397 364.642 549.691 370.509 550.646 376.221C551.602 381.933 554.179 387.251 558.07 391.54C564.23 398.34 572.41 402.88 580.92 402.65L584.72 401.17L575.53 391.04L576.22 377.04L586.63 367.59L600.63 368.27L606.01 379.88L609.81 378.39C610.982 373.596 610.962 368.587 609.752 363.802C608.543 359.017 606.18 354.601 602.87 350.94Z" fill="black"/>
</g>
<path d="M599.07 352.42C595.167 348.118 590.108 345.031 584.497 343.529C578.885 342.026 572.96 342.173 567.43 343.95L557.85 333.44L556.52 331.95L480.79 248.86C482.919 243.929 483.697 238.519 483.043 233.188C482.388 227.856 480.326 222.795 477.067 218.526C473.808 214.256 469.471 210.931 464.501 208.893C459.531 206.855 454.108 206.177 448.79 206.93L457.97 217.05L457.29 231.05L446.86 240.54L432.86 239.86L423.68 229.74C422.411 234.957 422.554 240.418 424.095 245.562C425.636 250.705 428.519 255.345 432.448 259.005C436.376 262.665 441.209 265.213 446.449 266.386C451.688 267.559 457.146 267.315 462.26 265.68L539.26 350.16L541.63 352.79L548.93 360.79C546.81 365.72 546.04 371.124 546.699 376.45C547.358 381.775 549.422 386.829 552.68 391.093C555.937 395.357 560.271 398.678 565.235 400.714C570.2 402.75 575.617 403.429 580.93 402.68L571.74 392.54L572.42 378.54L582.84 369.09L596.84 369.78L606.02 379.9C607.199 375.101 607.182 370.085 605.971 365.294C604.759 360.502 602.389 356.082 599.07 352.42V352.42Z" fill="#E0E0E0"/>
<path d="M599.07 352.42C599.07 352.42 599.51 352.9 600.34 353.87C601.522 355.347 602.57 356.926 603.47 358.59C606.946 365.124 607.906 372.706 606.17 379.9V380.1L606.03 379.95L596.84 369.84L596.92 369.89L582.92 369.22H583.02L572.62 378.68V378.57C572.42 382.93 572.19 387.68 571.95 392.62V392.49L581.06 402.54L581.3 402.8L580.95 402.85C575.879 403.587 570.705 403.028 565.908 401.225C561.112 399.422 556.85 396.434 553.52 392.54C549.896 388.332 547.508 383.202 546.62 377.72C545.676 371.973 546.391 366.076 548.68 360.72V360.96L461.99 265.87L462.26 265.94C456.781 267.671 450.928 267.838 445.36 266.42C437.604 264.414 430.949 259.437 426.832 252.564C422.716 245.691 421.468 237.475 423.36 229.69L423.48 229.21L423.81 229.57L432.99 239.69L432.81 239.61L446.86 240.29L446.67 240.36L457.15 230.9L457.06 231.08C457.29 226.34 457.52 221.67 457.75 217.03L457.81 217.21L448.63 207.09L448.32 206.74L448.78 206.68C454.31 205.899 459.949 206.651 465.08 208.855C470.212 211.06 474.64 214.631 477.88 219.18C480.98 223.52 482.881 228.601 483.39 233.91C483.862 239.028 483.055 244.182 481.04 248.91V248.67L567.59 343.83H567.47C571.589 342.515 575.942 342.095 580.237 342.601C584.532 343.106 588.669 344.524 592.37 346.76C594.251 347.908 596.007 349.249 597.61 350.76C598.61 351.83 599.15 352.38 599.15 352.38L597.57 350.8C595.953 349.296 594.191 347.957 592.31 346.8C588.618 344.599 584.5 343.209 580.229 342.723C575.958 342.236 571.632 342.665 567.54 343.98H567.47V343.92L480.76 248.92L480.66 248.81L480.72 248.68C482.703 244.007 483.493 238.914 483.02 233.86C482.52 228.631 480.643 223.628 477.58 219.36C474.39 214.885 470.032 211.372 464.981 209.204C459.931 207.037 454.382 206.299 448.94 207.07L449.09 206.66L458.15 216.88L458.22 216.95V217.06C458 221.687 457.773 226.353 457.54 231.06V231.17L457.46 231.24L447.05 240.69L446.97 240.76H446.86L432.86 240.07H432.75L432.68 239.99L423.49 229.87L423.94 229.76C422.684 234.93 422.826 240.341 424.351 245.438C425.876 250.536 428.729 255.136 432.618 258.767C436.506 262.398 441.291 264.93 446.48 266.102C451.67 267.275 457.078 267.046 462.15 265.44H462.3L462.42 265.56C493.9 300.14 523.42 332.51 549.05 360.69L549.15 360.8L549.09 360.94C546.84 366.208 546.129 372.005 547.04 377.66C547.917 382.926 550.174 387.865 553.582 391.974C556.99 396.083 561.427 399.215 566.44 401.05C571.065 402.723 576.03 403.238 580.9 402.55L580.78 402.86L571.61 392.74L571.56 392.68V392.54C571.8 387.61 572.03 382.86 572.25 378.54V378.47V378.42L582.68 368.99H582.74L596.74 369.69C600.1 373.41 603.19 376.82 605.9 379.83H605.72C607.469 372.681 606.548 365.139 603.13 358.62C602.243 356.956 601.216 355.37 600.06 353.88C599.48 352.93 599.07 352.42 599.07 352.42Z" fill="#263238"/>
<path d="M477.34 253.71C477.27 253.976 477.158 254.229 477.01 254.46C476.66 255.111 476.269 255.739 475.84 256.34C473.004 260.374 469.007 263.447 464.38 265.15C463.688 265.411 462.98 265.624 462.26 265.79C462.002 265.877 461.732 265.92 461.46 265.92C461.46 265.83 462.55 265.53 464.25 264.81C468.711 262.954 472.607 259.961 475.55 256.13C476.68 254.66 477.26 253.67 477.34 253.71Z" fill="#263238"/>
<path d="M561.91 289.8L533.15 276.4L507.44 273.19L516.88 281.19C516.88 281.19 483.64 292.78 483.06 295.39C482.48 298 485.68 305.02 491.54 303.72C491.54 303.72 488.25 307.72 489.62 312.13C490.99 316.54 494.02 317.37 499.62 316.34C499.62 316.34 495.82 322.03 498.8 324.93C501.78 327.83 506.42 327.1 506.42 327.1C506.42 327.1 506.48 334.03 510.14 334.63C513.8 335.23 524 334.52 527.81 333.35L547.16 327.35L559.7 324.54L561.91 289.8Z" fill="#FFBF9D"/>
<path d="M508.97 298.6C509.08 298.98 505.25 300.42 500.43 301.83C495.61 303.24 491.59 304.06 491.48 303.68C491.37 303.3 495.2 301.85 500.02 300.45C504.84 299.05 508.86 298.22 508.97 298.6Z" fill="#FF9A6C"/>
<path d="M513.86 312.27C513.97 312.65 510.94 313.9 507.08 315.07C503.22 316.24 499.99 316.86 499.87 316.48C499.75 316.1 502.8 314.85 506.66 313.69C510.52 312.53 513.75 311.9 513.86 312.27Z" fill="#FF9A6C"/>
<path d="M518.25 323.64C518.32 324.07 515.56 324.64 512.32 325.46C509.08 326.28 506.55 327.46 506.32 327.05C506.09 326.64 508.47 324.99 511.92 324.05C515.37 323.11 518.2 323.29 518.25 323.64Z" fill="#FF9A6C"/>
<path d="M521.88 280.04C521.99 280.43 518.22 281.8 513.55 283.41C508.88 285.02 505.07 286.25 504.91 285.88C504.75 285.51 508.37 283.67 513.09 282.05C517.81 280.43 521.78 279.66 521.88 280.04Z" fill="#FF9A6C"/>
<path d="M556.49 287.28L618.78 309.84L615.14 352.59L546.56 324.95L556.49 287.28Z" fill="#FFBF9D"/>
<path d="M636.41 212.47C636.41 212.47 644.53 220.86 649.26 235.95C653.99 251.04 676.26 315.01 675.72 335.36C675.13 356.41 660.96 371.43 629.82 363.11C611.24 358.11 589.1 350.11 589.1 350.11L604.84 298.37L617.15 301.54L597.27 264.22L636.41 212.47Z" fill="#E44C0D"/>
<path d="M622.15 236.92C622.27 237.01 613.65 249.28 602.91 264.33C592.17 279.38 583.38 291.54 583.26 291.44C583.14 291.34 591.76 279.08 602.5 264.03C613.24 248.98 622.04 236.84 622.15 236.92Z" fill="#263238"/>
<path d="M645.99 308.54C645.99 308.54 645.45 308.28 644.48 307.83C643.099 307.214 641.671 306.709 640.21 306.32C638.36 305.81 636.12 305.32 633.63 304.79L625.55 303.01C619.82 301.73 614.63 300.54 610.89 299.65L606.46 298.57C605.911 298.465 605.372 298.311 604.85 298.11C605.406 298.156 605.958 298.246 606.5 298.38L610.97 299.29C614.74 300.09 619.97 301.22 625.67 302.5L633.74 304.33C636.22 304.89 638.46 305.41 640.31 305.97C641.779 306.396 643.205 306.959 644.57 307.65C644.939 307.838 645.296 308.049 645.64 308.28C645.768 308.351 645.885 308.439 645.99 308.54V308.54Z" fill="#263238"/>
<g opacity="0.3">
<path opacity="0.3" d="M661.91 310.82C661.711 309.592 661.218 308.43 660.473 307.434C659.727 306.438 658.752 305.637 657.63 305.1C655.378 304.035 652.953 303.385 650.47 303.18C639.28 301.64 627.96 301.18 616.67 300.79L617.67 301.24C631.619 303.818 645.271 307.799 658.42 313.12C659.14 313.519 659.987 313.619 660.78 313.4C661.209 313.136 661.547 312.748 661.749 312.287C661.951 311.826 662.007 311.314 661.91 310.82V310.82Z" fill="black"/>
</g>
<g opacity="0.3">
<path opacity="0.3" d="M405.29 112.46C394.79 110.67 382.23 113.72 371.73 111.93C370.17 111.67 368.45 111.42 367.07 112.22C365.41 113.17 364.84 115.29 364.76 117.22C364.718 119.868 365.23 122.496 366.263 124.934C367.297 127.373 368.828 129.568 370.76 131.38C374.692 134.975 379.603 137.321 384.87 138.12C389.06 138.83 393.57 138.69 397.3 136.67C403.86 133.11 407.01 119.67 405.29 112.46Z" fill="black"/>
</g>
<path d="M364.54 131.67C364.54 131.67 358.17 124.2 357.25 120.76C356.64 118.48 356.94 112.09 357.25 108.04C357.32 106.675 357.789 105.361 358.597 104.259C359.406 103.158 360.519 102.317 361.8 101.84C362.175 101.654 362.594 101.573 363.011 101.607C363.429 101.64 363.829 101.787 364.17 102.03C365.035 100.857 366.006 99.7658 367.07 98.7701C369.57 96.2101 370.76 94.4802 376.26 96.0702C376.26 96.0702 380.31 91.8002 382.64 92.1202C384.204 92.3515 385.75 92.6855 387.27 93.1202C387.27 93.1202 396.14 92.7402 397.96 95.5602C398.994 96.8332 400.388 97.7639 401.96 98.2302C403.347 98.7197 404.622 99.4827 405.71 100.474C406.797 101.465 407.674 102.664 408.29 104C409.325 106.454 409.924 109.07 410.06 111.73L401.06 112.09C401.06 112.09 401.7 132.8 399.43 134.47C397.16 136.14 396.3 135.54 396.3 135.54C396.3 135.54 394.57 140.4 387.82 136.81C387.82 136.81 382.22 138.5 379.82 136.19C377.42 133.88 368.64 111.69 368.64 111.69L368.89 122.69C368.89 122.69 373.52 129.82 371.25 131.49C368.98 133.16 364.54 131.67 364.54 131.67Z" fill="#FFBF9D"/>
<path d="M375.78 103.6C375.993 104.015 376.164 104.451 376.29 104.9L377.51 108.5C378.51 111.5 379.88 115.78 381.34 120.45C382.8 125.12 384.02 129.45 385.4 132.29C385.931 133.434 386.546 134.537 387.24 135.59C387.73 136.34 388.04 136.72 388.01 136.75C387.98 136.78 387.9 136.68 387.74 136.5C387.505 136.249 387.285 135.986 387.08 135.71C386.312 134.689 385.642 133.598 385.08 132.45C383.59 129.56 382.34 125.27 380.86 120.61C379.38 115.95 378.09 111.69 377.17 108.61C376.75 107.14 376.39 105.92 376.11 104.96C375.958 104.518 375.848 104.063 375.78 103.6V103.6Z" fill="#FF9A6C"/>
<path d="M386.85 101.04C387.05 101.469 387.205 101.918 387.31 102.38L388.38 106.09C389.25 109.22 390.38 113.56 391.7 118.36C393.02 123.16 394.09 127.52 394.87 130.68C395.24 132.18 395.54 133.44 395.78 134.42C395.914 134.877 396.002 135.346 396.04 135.82C395.851 135.387 395.697 134.938 395.58 134.48C395.3 133.48 394.95 132.26 394.52 130.77C393.64 127.64 392.46 123.3 391.2 118.5C389.94 113.7 388.81 109.34 388.02 106.18C387.66 104.67 387.35 103.42 387.12 102.43C386.986 101.976 386.896 101.511 386.85 101.04V101.04Z" fill="#FF9A6C"/>
</g>
<defs>
<clipPath id="clip0_20_129">
<rect width="680.9" height="411.27" fill="white"/>
</clipPath>
</defs>
</svg>
